ISO-10303-21;
HEADER;
/* Generated by software containing ST-Developer
 * from STEP Tools, Inc. (www.steptools.com) 
 */

FILE_DESCRIPTION(
/* description */ (''),
/* implementation_level */ '2;1');

FILE_NAME(
/* name */ 'ATS-TI1OP-521-C1-R1.step',
/* time_stamp */ '2026-08-10T18:23:01+01:00',
/* author */ (''),
/* organization */ (''),
/* preprocessor_version */ 'ST-DEVELOPER v20.1',
/* originating_system */ 'Autodesk Translation Framework v15.8.0.0',
/* authorisation */ '');

FILE_SCHEMA (('AUTOMOTIVE_DESIGN { 1 0 10303 214 3 1 1 }'));
ENDSEC;

DATA;
#10=MECHANICAL_DESIGN_GEOMETRIC_PRESENTATION_REPRESENTATION('',(#13),#1293);
#11=SHAPE_REPRESENTATION_RELATIONSHIP('SRR','None',#1300,#12);
#12=ADVANCED_BREP_SHAPE_REPRESENTATION('',(#14),#1292);
#13=STYLED_ITEM('',(#1310),#14);
#14=MANIFOLD_SOLID_BREP('Body1',#773);
#15=FACE_BOUND('',#120,.T.);
#16=FACE_BOUND('',#122,.T.);
#17=FACE_BOUND('',#128,.T.);
#18=PLANE('',#790);
#19=PLANE('',#800);
#20=PLANE('',#805);
#21=PLANE('',#810);
#22=PLANE('',#815);
#23=PLANE('',#818);
#24=PLANE('',#821);
#25=PLANE('',#824);
#26=PLANE('',#825);
#27=PLANE('',#826);
#28=PLANE('',#830);
#29=PLANE('',#834);
#30=PLANE('',#835);
#31=PLANE('',#836);
#32=PLANE('',#837);
#33=PLANE('',#838);
#34=PLANE('',#839);
#35=PLANE('',#840);
#36=PLANE('',#841);
#37=PLANE('',#842);
#38=PLANE('',#843);
#39=PLANE('',#844);
#40=PLANE('',#845);
#41=PLANE('',#846);
#42=PLANE('',#847);
#43=PLANE('',#848);
#44=PLANE('',#849);
#45=PLANE('',#850);
#46=PLANE('',#851);
#47=FACE_OUTER_BOUND('',#88,.T.);
#48=FACE_OUTER_BOUND('',#89,.T.);
#49=FACE_OUTER_BOUND('',#90,.T.);
#50=FACE_OUTER_BOUND('',#91,.T.);
#51=FACE_OUTER_BOUND('',#92,.T.);
#52=FACE_OUTER_BOUND('',#93,.T.);
#53=FACE_OUTER_BOUND('',#94,.T.);
#54=FACE_OUTER_BOUND('',#95,.T.);
#55=FACE_OUTER_BOUND('',#96,.T.);
#56=FACE_OUTER_BOUND('',#97,.T.);
#57=FACE_OUTER_BOUND('',#98,.T.);
#58=FACE_OUTER_BOUND('',#99,.T.);
#59=FACE_OUTER_BOUND('',#100,.T.);
#60=FACE_OUTER_BOUND('',#101,.T.);
#61=FACE_OUTER_BOUND('',#102,.T.);
#62=FACE_OUTER_BOUND('',#103,.T.);
#63=FACE_OUTER_BOUND('',#104,.T.);
#64=FACE_OUTER_BOUND('',#105,.T.);
#65=FACE_OUTER_BOUND('',#106,.T.);
#66=FACE_OUTER_BOUND('',#107,.T.);
#67=FACE_OUTER_BOUND('',#108,.T.);
#68=FACE_OUTER_BOUND('',#109,.T.);
#69=FACE_OUTER_BOUND('',#110,.T.);
#70=FACE_OUTER_BOUND('',#111,.T.);
#71=FACE_OUTER_BOUND('',#112,.T.);
#72=FACE_OUTER_BOUND('',#113,.T.);
#73=FACE_OUTER_BOUND('',#114,.T.);
#74=FACE_OUTER_BOUND('',#115,.T.);
#75=FACE_OUTER_BOUND('',#116,.T.);
#76=FACE_OUTER_BOUND('',#117,.T.);
#77=FACE_OUTER_BOUND('',#118,.T.);
#78=FACE_OUTER_BOUND('',#119,.T.);
#79=FACE_OUTER_BOUND('',#121,.T.);
#80=FACE_OUTER_BOUND('',#123,.T.);
#81=FACE_OUTER_BOUND('',#124,.T.);
#82=FACE_OUTER_BOUND('',#125,.T.);
#83=FACE_OUTER_BOUND('',#126,.T.);
#84=FACE_OUTER_BOUND('',#127,.T.);
#85=FACE_OUTER_BOUND('',#129,.T.);
#86=FACE_OUTER_BOUND('',#130,.T.);
#87=FACE_OUTER_BOUND('',#131,.T.);
#88=EDGE_LOOP('',(#504,#505,#506,#507));
#89=EDGE_LOOP('',(#508,#509,#510,#511,#512,#513,#514,#515,#516,#517,#518,
#519,#520,#521,#522,#523,#524,#525,#526,#527,#528,#529,#530,#531,#532,#533));
#90=EDGE_LOOP('',(#534,#535,#536,#537));
#91=EDGE_LOOP('',(#538,#539,#540,#541));
#92=EDGE_LOOP('',(#542,#543,#544,#545));
#93=EDGE_LOOP('',(#546,#547,#548,#549));
#94=EDGE_LOOP('',(#550,#551,#552,#553));
#95=EDGE_LOOP('',(#554,#555,#556,#557));
#96=EDGE_LOOP('',(#558,#559,#560,#561));
#97=EDGE_LOOP('',(#562,#563,#564,#565));
#98=EDGE_LOOP('',(#566,#567,#568,#569));
#99=EDGE_LOOP('',(#570,#571,#572,#573));
#100=EDGE_LOOP('',(#574,#575,#576,#577));
#101=EDGE_LOOP('',(#578,#579,#580,#581));
#102=EDGE_LOOP('',(#582,#583,#584,#585));
#103=EDGE_LOOP('',(#586,#587,#588,#589));
#104=EDGE_LOOP('',(#590,#591,#592,#593));
#105=EDGE_LOOP('',(#594,#595,#596,#597));
#106=EDGE_LOOP('',(#598,#599,#600,#601));
#107=EDGE_LOOP('',(#602,#603,#604,#605));
#108=EDGE_LOOP('',(#606,#607,#608,#609));
#109=EDGE_LOOP('',(#610));
#110=EDGE_LOOP('',(#611,#612,#613,#614));
#111=EDGE_LOOP('',(#615));
#112=EDGE_LOOP('',(#616,#617,#618,#619));
#113=EDGE_LOOP('',(#620,#621,#622,#623));
#114=EDGE_LOOP('',(#624,#625,#626,#627));
#115=EDGE_LOOP('',(#628,#629,#630,#631));
#116=EDGE_LOOP('',(#632,#633,#634,#635));
#117=EDGE_LOOP('',(#636,#637,#638,#639));
#118=EDGE_LOOP('',(#640,#641,#642,#643));
#119=EDGE_LOOP('',(#644,#645,#646,#647));
#120=EDGE_LOOP('',(#648));
#121=EDGE_LOOP('',(#649,#650,#651,#652));
#122=EDGE_LOOP('',(#653));
#123=EDGE_LOOP('',(#654,#655,#656,#657));
#124=EDGE_LOOP('',(#658,#659,#660,#661));
#125=EDGE_LOOP('',(#662,#663,#664,#665));
#126=EDGE_LOOP('',(#666,#667,#668,#669));
#127=EDGE_LOOP('',(#670,#671,#672,#673,#674,#675,#676,#677,#678,#679,#680,
#681));
#128=EDGE_LOOP('',(#682,#683,#684,#685));
#129=EDGE_LOOP('',(#686,#687,#688,#689));
#130=EDGE_LOOP('',(#690,#691,#692,#693,#694,#695,#696,#697,#698,#699,#700,
#701,#702,#703,#704,#705,#706,#707,#708,#709,#710,#711,#712,#713,#714,#715));
#131=EDGE_LOOP('',(#716,#717,#718,#719));
#132=LINE('',#1074,#216);
#133=LINE('',#1077,#217);
#134=LINE('',#1080,#218);
#135=LINE('',#1084,#219);
#136=LINE('',#1088,#220);
#137=LINE('',#1092,#221);
#138=LINE('',#1096,#222);
#139=LINE('',#1100,#223);
#140=LINE('',#1104,#224);
#141=LINE('',#1108,#225);
#142=LINE('',#1112,#226);
#143=LINE('',#1116,#227);
#144=LINE('',#1118,#228);
#145=LINE('',#1120,#229);
#146=LINE('',#1122,#230);
#147=LINE('',#1124,#231);
#148=LINE('',#1126,#232);
#149=LINE('',#1127,#233);
#150=LINE('',#1130,#234);
#151=LINE('',#1131,#235);
#152=LINE('',#1135,#236);
#153=LINE('',#1140,#237);
#154=LINE('',#1141,#238);
#155=LINE('',#1144,#239);
#156=LINE('',#1145,#240);
#157=LINE('',#1149,#241);
#158=LINE('',#1154,#242);
#159=LINE('',#1155,#243);
#160=LINE('',#1158,#244);
#161=LINE('',#1159,#245);
#162=LINE('',#1163,#246);
#163=LINE('',#1168,#247);
#164=LINE('',#1169,#248);
#165=LINE('',#1171,#249);
#166=LINE('',#1176,#250);
#167=LINE('',#1177,#251);
#168=LINE('',#1179,#252);
#169=LINE('',#1184,#253);
#170=LINE('',#1185,#254);
#171=LINE('',#1187,#255);
#172=LINE('',#1192,#256);
#173=LINE('',#1193,#257);
#174=LINE('',#1195,#258);
#175=LINE('',#1197,#259);
#176=LINE('',#1199,#260);
#177=LINE('',#1204,#261);
#178=LINE('',#1211,#262);
#179=LINE('',#1217,#263);
#180=LINE('',#1219,#264);
#181=LINE('',#1221,#265);
#182=LINE('',#1222,#266);
#183=LINE('',#1226,#267);
#184=LINE('',#1228,#268);
#185=LINE('',#1230,#269);
#186=LINE('',#1231,#270);
#187=LINE('',#1234,#271);
#188=LINE('',#1236,#272);
#189=LINE('',#1237,#273);
#190=LINE('',#1240,#274);
#191=LINE('',#1242,#275);
#192=LINE('',#1243,#276);
#193=LINE('',#1247,#277);
#194=LINE('',#1249,#278);
#195=LINE('',#1251,#279);
#196=LINE('',#1252,#280);
#197=LINE('',#1255,#281);
#198=LINE('',#1257,#282);
#199=LINE('',#1258,#283);
#200=LINE('',#1260,#284);
#201=LINE('',#1261,#285);
#202=LINE('',#1263,#286);
#203=LINE('',#1266,#287);
#204=LINE('',#1267,#288);
#205=LINE('',#1269,#289);
#206=LINE('',#1271,#290);
#207=LINE('',#1274,#291);
#208=LINE('',#1275,#292);
#209=LINE('',#1277,#293);
#210=LINE('',#1280,#294);
#211=LINE('',#1281,#295);
#212=LINE('',#1283,#296);
#213=LINE('',#1284,#297);
#214=LINE('',#1286,#298);
#215=LINE('',#1288,#299);
#216=VECTOR('',#858,10.);
#217=VECTOR('',#861,10.);
#218=VECTOR('',#864,10.);
#219=VECTOR('',#867,10.);
#220=VECTOR('',#870,10.);
#221=VECTOR('',#873,10.);
#222=VECTOR('',#876,10.);
#223=VECTOR('',#879,10.);
#224=VECTOR('',#882,10.);
#225=VECTOR('',#885,10.);
#226=VECTOR('',#888,10.);
#227=VECTOR('',#891,10.);
#228=VECTOR('',#892,10.);
#229=VECTOR('',#893,10.);
#230=VECTOR('',#894,10.);
#231=VECTOR('',#895,10.);
#232=VECTOR('',#896,10.);
#233=VECTOR('',#897,10.);
#234=VECTOR('',#900,10.);
#235=VECTOR('',#901,10.);
#236=VECTOR('',#906,10.);
#237=VECTOR('',#911,10.);
#238=VECTOR('',#912,10.);
#239=VECTOR('',#915,10.);
#240=VECTOR('',#916,10.);
#241=VECTOR('',#921,10.);
#242=VECTOR('',#926,10.);
#243=VECTOR('',#927,10.);
#244=VECTOR('',#930,10.);
#245=VECTOR('',#931,10.);
#246=VECTOR('',#936,10.);
#247=VECTOR('',#941,10.);
#248=VECTOR('',#942,10.);
#249=VECTOR('',#945,10.);
#250=VECTOR('',#950,10.);
#251=VECTOR('',#951,10.);
#252=VECTOR('',#954,10.);
#253=VECTOR('',#959,10.);
#254=VECTOR('',#960,10.);
#255=VECTOR('',#963,10.);
#256=VECTOR('',#968,10.);
#257=VECTOR('',#969,10.);
#258=VECTOR('',#972,10.);
#259=VECTOR('',#975,10.);
#260=VECTOR('',#978,10.);
#261=VECTOR('',#983,2.);
#262=VECTOR('',#992,2.);
#263=VECTOR('',#999,10.);
#264=VECTOR('',#1000,10.);
#265=VECTOR('',#1001,10.);
#266=VECTOR('',#1002,10.);
#267=VECTOR('',#1005,10.);
#268=VECTOR('',#1006,10.);
#269=VECTOR('',#1007,10.);
#270=VECTOR('',#1008,10.);
#271=VECTOR('',#1011,10.);
#272=VECTOR('',#1012,10.);
#273=VECTOR('',#1013,10.);
#274=VECTOR('',#1016,10.);
#275=VECTOR('',#1017,10.);
#276=VECTOR('',#1018,10.);
#277=VECTOR('',#1021,10.);
#278=VECTOR('',#1022,10.);
#279=VECTOR('',#1023,10.);
#280=VECTOR('',#1024,10.);
#281=VECTOR('',#1027,10.);
#282=VECTOR('',#1028,10.);
#283=VECTOR('',#1029,10.);
#284=VECTOR('',#1032,10.);
#285=VECTOR('',#1033,10.);
#286=VECTOR('',#1036,10.);
#287=VECTOR('',#1039,10.);
#288=VECTOR('',#1040,10.);
#289=VECTOR('',#1043,10.);
#290=VECTOR('',#1046,10.);
#291=VECTOR('',#1049,10.);
#292=VECTOR('',#1050,10.);
#293=VECTOR('',#1053,10.);
#294=VECTOR('',#1056,10.);
#295=VECTOR('',#1057,10.);
#296=VECTOR('',#1058,10.);
#297=VECTOR('',#1059,10.);
#298=VECTOR('',#1062,10.);
#299=VECTOR('',#1065,10.);
#300=CIRCLE('',#788,0.2);
#301=CIRCLE('',#789,0.2);
#302=CIRCLE('',#791,0.2);
#303=CIRCLE('',#792,1.);
#304=CIRCLE('',#793,1.);
#305=CIRCLE('',#794,0.2);
#306=CIRCLE('',#795,0.2);
#307=CIRCLE('',#796,1.);
#308=CIRCLE('',#797,1.);
#309=CIRCLE('',#798,0.2);
#310=CIRCLE('',#799,0.2);
#311=CIRCLE('',#802,0.2);
#312=CIRCLE('',#804,0.2);
#313=CIRCLE('',#807,0.2);
#314=CIRCLE('',#809,0.2);
#315=CIRCLE('',#812,0.2);
#316=CIRCLE('',#814,1.);
#317=CIRCLE('',#817,1.);
#318=CIRCLE('',#820,1.);
#319=CIRCLE('',#823,1.);
#320=CIRCLE('',#828,2.);
#321=CIRCLE('',#829,2.);
#322=CIRCLE('',#832,2.);
#323=CIRCLE('',#833,2.);
#324=VERTEX_POINT('',#1070);
#325=VERTEX_POINT('',#1071);
#326=VERTEX_POINT('',#1073);
#327=VERTEX_POINT('',#1075);
#328=VERTEX_POINT('',#1079);
#329=VERTEX_POINT('',#1081);
#330=VERTEX_POINT('',#1083);
#331=VERTEX_POINT('',#1085);
#332=VERTEX_POINT('',#1087);
#333=VERTEX_POINT('',#1089);
#334=VERTEX_POINT('',#1091);
#335=VERTEX_POINT('',#1093);
#336=VERTEX_POINT('',#1095);
#337=VERTEX_POINT('',#1097);
#338=VERTEX_POINT('',#1099);
#339=VERTEX_POINT('',#1101);
#340=VERTEX_POINT('',#1103);
#341=VERTEX_POINT('',#1105);
#342=VERTEX_POINT('',#1107);
#343=VERTEX_POINT('',#1109);
#344=VERTEX_POINT('',#1111);
#345=VERTEX_POINT('',#1113);
#346=VERTEX_POINT('',#1115);
#347=VERTEX_POINT('',#1117);
#348=VERTEX_POINT('',#1119);
#349=VERTEX_POINT('',#1121);
#350=VERTEX_POINT('',#1123);
#351=VERTEX_POINT('',#1125);
#352=VERTEX_POINT('',#1129);
#353=VERTEX_POINT('',#1133);
#354=VERTEX_POINT('',#1137);
#355=VERTEX_POINT('',#1138);
#356=VERTEX_POINT('',#1143);
#357=VERTEX_POINT('',#1147);
#358=VERTEX_POINT('',#1151);
#359=VERTEX_POINT('',#1152);
#360=VERTEX_POINT('',#1157);
#361=VERTEX_POINT('',#1161);
#362=VERTEX_POINT('',#1165);
#363=VERTEX_POINT('',#1166);
#364=VERTEX_POINT('',#1173);
#365=VERTEX_POINT('',#1174);
#366=VERTEX_POINT('',#1181);
#367=VERTEX_POINT('',#1182);
#368=VERTEX_POINT('',#1189);
#369=VERTEX_POINT('',#1190);
#370=VERTEX_POINT('',#1201);
#371=VERTEX_POINT('',#1203);
#372=VERTEX_POINT('',#1208);
#373=VERTEX_POINT('',#1210);
#374=VERTEX_POINT('',#1215);
#375=VERTEX_POINT('',#1216);
#376=VERTEX_POINT('',#1218);
#377=VERTEX_POINT('',#1220);
#378=VERTEX_POINT('',#1224);
#379=VERTEX_POINT('',#1225);
#380=VERTEX_POINT('',#1227);
#381=VERTEX_POINT('',#1229);
#382=VERTEX_POINT('',#1233);
#383=VERTEX_POINT('',#1235);
#384=VERTEX_POINT('',#1239);
#385=VERTEX_POINT('',#1241);
#386=VERTEX_POINT('',#1245);
#387=VERTEX_POINT('',#1246);
#388=VERTEX_POINT('',#1248);
#389=VERTEX_POINT('',#1250);
#390=VERTEX_POINT('',#1254);
#391=VERTEX_POINT('',#1256);
#392=VERTEX_POINT('',#1265);
#393=VERTEX_POINT('',#1273);
#394=VERTEX_POINT('',#1279);
#395=VERTEX_POINT('',#1282);
#396=EDGE_CURVE('',#324,#325,#300,.T.);
#397=EDGE_CURVE('',#325,#326,#132,.T.);
#398=EDGE_CURVE('',#326,#327,#301,.T.);
#399=EDGE_CURVE('',#327,#324,#133,.T.);
#400=EDGE_CURVE('',#328,#326,#134,.T.);
#401=EDGE_CURVE('',#329,#328,#302,.T.);
#402=EDGE_CURVE('',#329,#330,#135,.T.);
#403=EDGE_CURVE('',#331,#330,#303,.T.);
#404=EDGE_CURVE('',#331,#332,#136,.T.);
#405=EDGE_CURVE('',#333,#332,#304,.T.);
#406=EDGE_CURVE('',#333,#334,#137,.T.);
#407=EDGE_CURVE('',#335,#334,#305,.T.);
#408=EDGE_CURVE('',#336,#335,#138,.T.);
#409=EDGE_CURVE('',#337,#336,#306,.T.);
#410=EDGE_CURVE('',#337,#338,#139,.T.);
#411=EDGE_CURVE('',#339,#338,#307,.T.);
#412=EDGE_CURVE('',#339,#340,#140,.T.);
#413=EDGE_CURVE('',#341,#340,#308,.T.);
#414=EDGE_CURVE('',#341,#342,#141,.T.);
#415=EDGE_CURVE('',#343,#342,#309,.T.);
#416=EDGE_CURVE('',#344,#343,#142,.T.);
#417=EDGE_CURVE('',#345,#344,#310,.T.);
#418=EDGE_CURVE('',#346,#345,#143,.T.);
#419=EDGE_CURVE('',#347,#346,#144,.T.);
#420=EDGE_CURVE('',#348,#347,#145,.T.);
#421=EDGE_CURVE('',#349,#348,#146,.T.);
#422=EDGE_CURVE('',#350,#349,#147,.T.);
#423=EDGE_CURVE('',#351,#350,#148,.T.);
#424=EDGE_CURVE('',#351,#327,#149,.T.);
#425=EDGE_CURVE('',#325,#352,#150,.T.);
#426=EDGE_CURVE('',#328,#352,#151,.T.);
#427=EDGE_CURVE('',#352,#353,#311,.T.);
#428=EDGE_CURVE('',#353,#329,#152,.T.);
#429=EDGE_CURVE('',#354,#355,#312,.T.);
#430=EDGE_CURVE('',#355,#335,#153,.T.);
#431=EDGE_CURVE('',#334,#354,#154,.T.);
#432=EDGE_CURVE('',#355,#356,#155,.T.);
#433=EDGE_CURVE('',#336,#356,#156,.T.);
#434=EDGE_CURVE('',#356,#357,#313,.T.);
#435=EDGE_CURVE('',#357,#337,#157,.T.);
#436=EDGE_CURVE('',#358,#359,#314,.T.);
#437=EDGE_CURVE('',#359,#343,#158,.T.);
#438=EDGE_CURVE('',#342,#358,#159,.T.);
#439=EDGE_CURVE('',#359,#360,#160,.T.);
#440=EDGE_CURVE('',#344,#360,#161,.T.);
#441=EDGE_CURVE('',#360,#361,#315,.T.);
#442=EDGE_CURVE('',#361,#345,#162,.T.);
#443=EDGE_CURVE('',#362,#363,#316,.T.);
#444=EDGE_CURVE('',#363,#341,#163,.T.);
#445=EDGE_CURVE('',#340,#362,#164,.T.);
#446=EDGE_CURVE('',#358,#363,#165,.T.);
#447=EDGE_CURVE('',#364,#365,#317,.T.);
#448=EDGE_CURVE('',#365,#339,#166,.T.);
#449=EDGE_CURVE('',#338,#364,#167,.T.);
#450=EDGE_CURVE('',#362,#365,#168,.T.);
#451=EDGE_CURVE('',#366,#367,#318,.T.);
#452=EDGE_CURVE('',#367,#333,#169,.T.);
#453=EDGE_CURVE('',#332,#366,#170,.T.);
#454=EDGE_CURVE('',#354,#367,#171,.T.);
#455=EDGE_CURVE('',#368,#369,#319,.T.);
#456=EDGE_CURVE('',#369,#331,#172,.T.);
#457=EDGE_CURVE('',#330,#368,#173,.T.);
#458=EDGE_CURVE('',#366,#369,#174,.T.);
#459=EDGE_CURVE('',#364,#357,#175,.T.);
#460=EDGE_CURVE('',#368,#353,#176,.T.);
#461=EDGE_CURVE('',#370,#370,#320,.T.);
#462=EDGE_CURVE('',#370,#371,#177,.T.);
#463=EDGE_CURVE('',#371,#371,#321,.T.);
#464=EDGE_CURVE('',#372,#372,#322,.T.);
#465=EDGE_CURVE('',#372,#373,#178,.T.);
#466=EDGE_CURVE('',#373,#373,#323,.T.);
#467=EDGE_CURVE('',#374,#375,#179,.T.);
#468=EDGE_CURVE('',#376,#374,#180,.T.);
#469=EDGE_CURVE('',#377,#376,#181,.T.);
#470=EDGE_CURVE('',#375,#377,#182,.T.);
#471=EDGE_CURVE('',#378,#379,#183,.T.);
#472=EDGE_CURVE('',#378,#380,#184,.T.);
#473=EDGE_CURVE('',#381,#380,#185,.T.);
#474=EDGE_CURVE('',#379,#381,#186,.T.);
#475=EDGE_CURVE('',#379,#382,#187,.T.);
#476=EDGE_CURVE('',#383,#381,#188,.T.);
#477=EDGE_CURVE('',#382,#383,#189,.T.);
#478=EDGE_CURVE('',#382,#384,#190,.T.);
#479=EDGE_CURVE('',#385,#383,#191,.T.);
#480=EDGE_CURVE('',#384,#385,#192,.T.);
#481=EDGE_CURVE('',#386,#387,#193,.T.);
#482=EDGE_CURVE('',#386,#388,#194,.T.);
#483=EDGE_CURVE('',#389,#388,#195,.T.);
#484=EDGE_CURVE('',#387,#389,#196,.T.);
#485=EDGE_CURVE('',#390,#376,#197,.T.);
#486=EDGE_CURVE('',#390,#391,#198,.T.);
#487=EDGE_CURVE('',#377,#391,#199,.T.);
#488=EDGE_CURVE('',#350,#388,#200,.T.);
#489=EDGE_CURVE('',#389,#349,#201,.T.);
#490=EDGE_CURVE('',#387,#348,#202,.T.);
#491=EDGE_CURVE('',#392,#374,#203,.T.);
#492=EDGE_CURVE('',#390,#392,#204,.T.);
#493=EDGE_CURVE('',#378,#384,#205,.T.);
#494=EDGE_CURVE('',#386,#347,#206,.T.);
#495=EDGE_CURVE('',#393,#375,#207,.T.);
#496=EDGE_CURVE('',#392,#393,#208,.T.);
#497=EDGE_CURVE('',#385,#380,#209,.T.);
#498=EDGE_CURVE('',#391,#394,#210,.T.);
#499=EDGE_CURVE('',#394,#351,#211,.T.);
#500=EDGE_CURVE('',#346,#395,#212,.T.);
#501=EDGE_CURVE('',#395,#393,#213,.T.);
#502=EDGE_CURVE('',#395,#361,#214,.T.);
#503=EDGE_CURVE('',#394,#324,#215,.T.);
#504=ORIENTED_EDGE('',*,*,#396,.T.);
#505=ORIENTED_EDGE('',*,*,#397,.T.);
#506=ORIENTED_EDGE('',*,*,#398,.T.);
#507=ORIENTED_EDGE('',*,*,#399,.T.);
#508=ORIENTED_EDGE('',*,*,#398,.F.);
#509=ORIENTED_EDGE('',*,*,#400,.F.);
#510=ORIENTED_EDGE('',*,*,#401,.F.);
#511=ORIENTED_EDGE('',*,*,#402,.T.);
#512=ORIENTED_EDGE('',*,*,#403,.F.);
#513=ORIENTED_EDGE('',*,*,#404,.T.);
#514=ORIENTED_EDGE('',*,*,#405,.F.);
#515=ORIENTED_EDGE('',*,*,#406,.T.);
#516=ORIENTED_EDGE('',*,*,#407,.F.);
#517=ORIENTED_EDGE('',*,*,#408,.F.);
#518=ORIENTED_EDGE('',*,*,#409,.F.);
#519=ORIENTED_EDGE('',*,*,#410,.T.);
#520=ORIENTED_EDGE('',*,*,#411,.F.);
#521=ORIENTED_EDGE('',*,*,#412,.T.);
#522=ORIENTED_EDGE('',*,*,#413,.F.);
#523=ORIENTED_EDGE('',*,*,#414,.T.);
#524=ORIENTED_EDGE('',*,*,#415,.F.);
#525=ORIENTED_EDGE('',*,*,#416,.F.);
#526=ORIENTED_EDGE('',*,*,#417,.F.);
#527=ORIENTED_EDGE('',*,*,#418,.F.);
#528=ORIENTED_EDGE('',*,*,#419,.F.);
#529=ORIENTED_EDGE('',*,*,#420,.F.);
#530=ORIENTED_EDGE('',*,*,#421,.F.);
#531=ORIENTED_EDGE('',*,*,#422,.F.);
#532=ORIENTED_EDGE('',*,*,#423,.F.);
#533=ORIENTED_EDGE('',*,*,#424,.T.);
#534=ORIENTED_EDGE('',*,*,#397,.F.);
#535=ORIENTED_EDGE('',*,*,#425,.T.);
#536=ORIENTED_EDGE('',*,*,#426,.F.);
#537=ORIENTED_EDGE('',*,*,#400,.T.);
#538=ORIENTED_EDGE('',*,*,#401,.T.);
#539=ORIENTED_EDGE('',*,*,#426,.T.);
#540=ORIENTED_EDGE('',*,*,#427,.T.);
#541=ORIENTED_EDGE('',*,*,#428,.T.);
#542=ORIENTED_EDGE('',*,*,#429,.T.);
#543=ORIENTED_EDGE('',*,*,#430,.T.);
#544=ORIENTED_EDGE('',*,*,#407,.T.);
#545=ORIENTED_EDGE('',*,*,#431,.T.);
#546=ORIENTED_EDGE('',*,*,#430,.F.);
#547=ORIENTED_EDGE('',*,*,#432,.T.);
#548=ORIENTED_EDGE('',*,*,#433,.F.);
#549=ORIENTED_EDGE('',*,*,#408,.T.);
#550=ORIENTED_EDGE('',*,*,#409,.T.);
#551=ORIENTED_EDGE('',*,*,#433,.T.);
#552=ORIENTED_EDGE('',*,*,#434,.T.);
#553=ORIENTED_EDGE('',*,*,#435,.T.);
#554=ORIENTED_EDGE('',*,*,#436,.T.);
#555=ORIENTED_EDGE('',*,*,#437,.T.);
#556=ORIENTED_EDGE('',*,*,#415,.T.);
#557=ORIENTED_EDGE('',*,*,#438,.T.);
#558=ORIENTED_EDGE('',*,*,#437,.F.);
#559=ORIENTED_EDGE('',*,*,#439,.T.);
#560=ORIENTED_EDGE('',*,*,#440,.F.);
#561=ORIENTED_EDGE('',*,*,#416,.T.);
#562=ORIENTED_EDGE('',*,*,#417,.T.);
#563=ORIENTED_EDGE('',*,*,#440,.T.);
#564=ORIENTED_EDGE('',*,*,#441,.T.);
#565=ORIENTED_EDGE('',*,*,#442,.T.);
#566=ORIENTED_EDGE('',*,*,#443,.T.);
#567=ORIENTED_EDGE('',*,*,#444,.T.);
#568=ORIENTED_EDGE('',*,*,#413,.T.);
#569=ORIENTED_EDGE('',*,*,#445,.T.);
#570=ORIENTED_EDGE('',*,*,#438,.F.);
#571=ORIENTED_EDGE('',*,*,#414,.F.);
#572=ORIENTED_EDGE('',*,*,#444,.F.);
#573=ORIENTED_EDGE('',*,*,#446,.F.);
#574=ORIENTED_EDGE('',*,*,#447,.T.);
#575=ORIENTED_EDGE('',*,*,#448,.T.);
#576=ORIENTED_EDGE('',*,*,#411,.T.);
#577=ORIENTED_EDGE('',*,*,#449,.T.);
#578=ORIENTED_EDGE('',*,*,#445,.F.);
#579=ORIENTED_EDGE('',*,*,#412,.F.);
#580=ORIENTED_EDGE('',*,*,#448,.F.);
#581=ORIENTED_EDGE('',*,*,#450,.F.);
#582=ORIENTED_EDGE('',*,*,#451,.T.);
#583=ORIENTED_EDGE('',*,*,#452,.T.);
#584=ORIENTED_EDGE('',*,*,#405,.T.);
#585=ORIENTED_EDGE('',*,*,#453,.T.);
#586=ORIENTED_EDGE('',*,*,#431,.F.);
#587=ORIENTED_EDGE('',*,*,#406,.F.);
#588=ORIENTED_EDGE('',*,*,#452,.F.);
#589=ORIENTED_EDGE('',*,*,#454,.F.);
#590=ORIENTED_EDGE('',*,*,#455,.T.);
#591=ORIENTED_EDGE('',*,*,#456,.T.);
#592=ORIENTED_EDGE('',*,*,#403,.T.);
#593=ORIENTED_EDGE('',*,*,#457,.T.);
#594=ORIENTED_EDGE('',*,*,#453,.F.);
#595=ORIENTED_EDGE('',*,*,#404,.F.);
#596=ORIENTED_EDGE('',*,*,#456,.F.);
#597=ORIENTED_EDGE('',*,*,#458,.F.);
#598=ORIENTED_EDGE('',*,*,#435,.F.);
#599=ORIENTED_EDGE('',*,*,#459,.F.);
#600=ORIENTED_EDGE('',*,*,#449,.F.);
#601=ORIENTED_EDGE('',*,*,#410,.F.);
#602=ORIENTED_EDGE('',*,*,#428,.F.);
#603=ORIENTED_EDGE('',*,*,#460,.F.);
#604=ORIENTED_EDGE('',*,*,#457,.F.);
#605=ORIENTED_EDGE('',*,*,#402,.F.);
#606=ORIENTED_EDGE('',*,*,#461,.F.);
#607=ORIENTED_EDGE('',*,*,#462,.T.);
#608=ORIENTED_EDGE('',*,*,#463,.T.);
#609=ORIENTED_EDGE('',*,*,#462,.F.);
#610=ORIENTED_EDGE('',*,*,#463,.F.);
#611=ORIENTED_EDGE('',*,*,#464,.F.);
#612=ORIENTED_EDGE('',*,*,#465,.T.);
#613=ORIENTED_EDGE('',*,*,#466,.T.);
#614=ORIENTED_EDGE('',*,*,#465,.F.);
#615=ORIENTED_EDGE('',*,*,#466,.F.);
#616=ORIENTED_EDGE('',*,*,#467,.F.);
#617=ORIENTED_EDGE('',*,*,#468,.F.);
#618=ORIENTED_EDGE('',*,*,#469,.F.);
#619=ORIENTED_EDGE('',*,*,#470,.F.);
#620=ORIENTED_EDGE('',*,*,#471,.F.);
#621=ORIENTED_EDGE('',*,*,#472,.T.);
#622=ORIENTED_EDGE('',*,*,#473,.F.);
#623=ORIENTED_EDGE('',*,*,#474,.F.);
#624=ORIENTED_EDGE('',*,*,#475,.F.);
#625=ORIENTED_EDGE('',*,*,#474,.T.);
#626=ORIENTED_EDGE('',*,*,#476,.F.);
#627=ORIENTED_EDGE('',*,*,#477,.F.);
#628=ORIENTED_EDGE('',*,*,#478,.F.);
#629=ORIENTED_EDGE('',*,*,#477,.T.);
#630=ORIENTED_EDGE('',*,*,#479,.F.);
#631=ORIENTED_EDGE('',*,*,#480,.F.);
#632=ORIENTED_EDGE('',*,*,#481,.F.);
#633=ORIENTED_EDGE('',*,*,#482,.T.);
#634=ORIENTED_EDGE('',*,*,#483,.F.);
#635=ORIENTED_EDGE('',*,*,#484,.F.);
#636=ORIENTED_EDGE('',*,*,#469,.T.);
#637=ORIENTED_EDGE('',*,*,#485,.F.);
#638=ORIENTED_EDGE('',*,*,#486,.T.);
#639=ORIENTED_EDGE('',*,*,#487,.F.);
#640=ORIENTED_EDGE('',*,*,#483,.T.);
#641=ORIENTED_EDGE('',*,*,#488,.F.);
#642=ORIENTED_EDGE('',*,*,#422,.T.);
#643=ORIENTED_EDGE('',*,*,#489,.F.);
#644=ORIENTED_EDGE('',*,*,#484,.T.);
#645=ORIENTED_EDGE('',*,*,#489,.T.);
#646=ORIENTED_EDGE('',*,*,#421,.T.);
#647=ORIENTED_EDGE('',*,*,#490,.F.);
#648=ORIENTED_EDGE('',*,*,#461,.T.);
#649=ORIENTED_EDGE('',*,*,#468,.T.);
#650=ORIENTED_EDGE('',*,*,#491,.F.);
#651=ORIENTED_EDGE('',*,*,#492,.F.);
#652=ORIENTED_EDGE('',*,*,#485,.T.);
#653=ORIENTED_EDGE('',*,*,#464,.T.);
#654=ORIENTED_EDGE('',*,*,#471,.T.);
#655=ORIENTED_EDGE('',*,*,#475,.T.);
#656=ORIENTED_EDGE('',*,*,#478,.T.);
#657=ORIENTED_EDGE('',*,*,#493,.F.);
#658=ORIENTED_EDGE('',*,*,#481,.T.);
#659=ORIENTED_EDGE('',*,*,#490,.T.);
#660=ORIENTED_EDGE('',*,*,#420,.T.);
#661=ORIENTED_EDGE('',*,*,#494,.F.);
#662=ORIENTED_EDGE('',*,*,#467,.T.);
#663=ORIENTED_EDGE('',*,*,#495,.F.);
#664=ORIENTED_EDGE('',*,*,#496,.F.);
#665=ORIENTED_EDGE('',*,*,#491,.T.);
#666=ORIENTED_EDGE('',*,*,#473,.T.);
#667=ORIENTED_EDGE('',*,*,#497,.F.);
#668=ORIENTED_EDGE('',*,*,#479,.T.);
#669=ORIENTED_EDGE('',*,*,#476,.T.);
#670=ORIENTED_EDGE('',*,*,#487,.T.);
#671=ORIENTED_EDGE('',*,*,#498,.T.);
#672=ORIENTED_EDGE('',*,*,#499,.T.);
#673=ORIENTED_EDGE('',*,*,#423,.T.);
#674=ORIENTED_EDGE('',*,*,#488,.T.);
#675=ORIENTED_EDGE('',*,*,#482,.F.);
#676=ORIENTED_EDGE('',*,*,#494,.T.);
#677=ORIENTED_EDGE('',*,*,#419,.T.);
#678=ORIENTED_EDGE('',*,*,#500,.T.);
#679=ORIENTED_EDGE('',*,*,#501,.T.);
#680=ORIENTED_EDGE('',*,*,#495,.T.);
#681=ORIENTED_EDGE('',*,*,#470,.T.);
#682=ORIENTED_EDGE('',*,*,#472,.F.);
#683=ORIENTED_EDGE('',*,*,#493,.T.);
#684=ORIENTED_EDGE('',*,*,#480,.T.);
#685=ORIENTED_EDGE('',*,*,#497,.T.);
#686=ORIENTED_EDGE('',*,*,#442,.F.);
#687=ORIENTED_EDGE('',*,*,#502,.F.);
#688=ORIENTED_EDGE('',*,*,#500,.F.);
#689=ORIENTED_EDGE('',*,*,#418,.T.);
#690=ORIENTED_EDGE('',*,*,#396,.F.);
#691=ORIENTED_EDGE('',*,*,#503,.F.);
#692=ORIENTED_EDGE('',*,*,#498,.F.);
#693=ORIENTED_EDGE('',*,*,#486,.F.);
#694=ORIENTED_EDGE('',*,*,#492,.T.);
#695=ORIENTED_EDGE('',*,*,#496,.T.);
#696=ORIENTED_EDGE('',*,*,#501,.F.);
#697=ORIENTED_EDGE('',*,*,#502,.T.);
#698=ORIENTED_EDGE('',*,*,#441,.F.);
#699=ORIENTED_EDGE('',*,*,#439,.F.);
#700=ORIENTED_EDGE('',*,*,#436,.F.);
#701=ORIENTED_EDGE('',*,*,#446,.T.);
#702=ORIENTED_EDGE('',*,*,#443,.F.);
#703=ORIENTED_EDGE('',*,*,#450,.T.);
#704=ORIENTED_EDGE('',*,*,#447,.F.);
#705=ORIENTED_EDGE('',*,*,#459,.T.);
#706=ORIENTED_EDGE('',*,*,#434,.F.);
#707=ORIENTED_EDGE('',*,*,#432,.F.);
#708=ORIENTED_EDGE('',*,*,#429,.F.);
#709=ORIENTED_EDGE('',*,*,#454,.T.);
#710=ORIENTED_EDGE('',*,*,#451,.F.);
#711=ORIENTED_EDGE('',*,*,#458,.T.);
#712=ORIENTED_EDGE('',*,*,#455,.F.);
#713=ORIENTED_EDGE('',*,*,#460,.T.);
#714=ORIENTED_EDGE('',*,*,#427,.F.);
#715=ORIENTED_EDGE('',*,*,#425,.F.);
#716=ORIENTED_EDGE('',*,*,#399,.F.);
#717=ORIENTED_EDGE('',*,*,#424,.F.);
#718=ORIENTED_EDGE('',*,*,#499,.F.);
#719=ORIENTED_EDGE('',*,*,#503,.T.);
#720=CYLINDRICAL_SURFACE('',#787,0.2);
#721=CYLINDRICAL_SURFACE('',#801,0.2);
#722=CYLINDRICAL_SURFACE('',#803,0.2);
#723=CYLINDRICAL_SURFACE('',#806,0.2);
#724=CYLINDRICAL_SURFACE('',#808,0.2);
#725=CYLINDRICAL_SURFACE('',#811,0.2);
#726=CYLINDRICAL_SURFACE('',#813,1.);
#727=CYLINDRICAL_SURFACE('',#816,1.);
#728=CYLINDRICAL_SURFACE('',#819,1.);
#729=CYLINDRICAL_SURFACE('',#822,1.);
#730=CYLINDRICAL_SURFACE('',#827,2.);
#731=CYLINDRICAL_SURFACE('',#831,2.);
#732=ADVANCED_FACE('',(#47),#720,.T.);
#733=ADVANCED_FACE('',(#48),#18,.T.);
#734=ADVANCED_FACE('',(#49),#19,.T.);
#735=ADVANCED_FACE('',(#50),#721,.T.);
#736=ADVANCED_FACE('',(#51),#722,.T.);
#737=ADVANCED_FACE('',(#52),#20,.T.);
#738=ADVANCED_FACE('',(#53),#723,.T.);
#739=ADVANCED_FACE('',(#54),#724,.T.);
#740=ADVANCED_FACE('',(#55),#21,.T.);
#741=ADVANCED_FACE('',(#56),#725,.T.);
#742=ADVANCED_FACE('',(#57),#726,.F.);
#743=ADVANCED_FACE('',(#58),#22,.F.);
#744=ADVANCED_FACE('',(#59),#727,.F.);
#745=ADVANCED_FACE('',(#60),#23,.F.);
#746=ADVANCED_FACE('',(#61),#728,.F.);
#747=ADVANCED_FACE('',(#62),#24,.F.);
#748=ADVANCED_FACE('',(#63),#729,.F.);
#749=ADVANCED_FACE('',(#64),#25,.F.);
#750=ADVANCED_FACE('',(#65),#26,.F.);
#751=ADVANCED_FACE('',(#66),#27,.F.);
#752=ADVANCED_FACE('',(#67),#730,.F.);
#753=ADVANCED_FACE('',(#68),#28,.T.);
#754=ADVANCED_FACE('',(#69),#731,.F.);
#755=ADVANCED_FACE('',(#70),#29,.T.);
#756=ADVANCED_FACE('',(#71),#30,.F.);
#757=ADVANCED_FACE('',(#72),#31,.F.);
#758=ADVANCED_FACE('',(#73),#32,.F.);
#759=ADVANCED_FACE('',(#74),#33,.F.);
#760=ADVANCED_FACE('',(#75),#34,.F.);
#761=ADVANCED_FACE('',(#76),#35,.T.);
#762=ADVANCED_FACE('',(#77),#36,.T.);
#763=ADVANCED_FACE('',(#78,#15),#37,.T.);
#764=ADVANCED_FACE('',(#79,#16),#38,.T.);
#765=ADVANCED_FACE('',(#80),#39,.T.);
#766=ADVANCED_FACE('',(#81),#40,.T.);
#767=ADVANCED_FACE('',(#82),#41,.T.);
#768=ADVANCED_FACE('',(#83),#42,.T.);
#769=ADVANCED_FACE('',(#84,#17),#43,.F.);
#770=ADVANCED_FACE('',(#85),#44,.T.);
#771=ADVANCED_FACE('',(#86),#45,.T.);
#772=ADVANCED_FACE('',(#87),#46,.T.);
#773=CLOSED_SHELL('',(#732,#733,#734,#735,#736,#737,#738,#739,#740,#741,
#742,#743,#744,#745,#746,#747,#748,#749,#750,#751,#752,#753,#754,#755,#756,
#757,#758,#759,#760,#761,#762,#763,#764,#765,#766,#767,#768,#769,#770,#771,
#772));
#774=DERIVED_UNIT_ELEMENT(#776,1.);
#775=DERIVED_UNIT_ELEMENT(#1295,-3.);
#776=(
MASS_UNIT()
NAMED_UNIT(*)
SI_UNIT(.KILO.,.GRAM.)
);
#777=DERIVED_UNIT((#774,#775));
#778=MEASURE_REPRESENTATION_ITEM('density measure',
POSITIVE_RATIO_MEASURE(7850.),#777);
#779=PROPERTY_DEFINITION_REPRESENTATION(#784,#781);
#780=PROPERTY_DEFINITION_REPRESENTATION(#785,#782);
#781=REPRESENTATION('material name',(#783),#1292);
#782=REPRESENTATION('density',(#778),#1292);
#783=DESCRIPTIVE_REPRESENTATION_ITEM('Steel','Steel');
#784=PROPERTY_DEFINITION('material property','material name',#1302);
#785=PROPERTY_DEFINITION('material property','density of part',#1302);
#786=AXIS2_PLACEMENT_3D('',#1068,#852,#853);
#787=AXIS2_PLACEMENT_3D('',#1069,#854,#855);
#788=AXIS2_PLACEMENT_3D('',#1072,#856,#857);
#789=AXIS2_PLACEMENT_3D('',#1076,#859,#860);
#790=AXIS2_PLACEMENT_3D('',#1078,#862,#863);
#791=AXIS2_PLACEMENT_3D('',#1082,#865,#866);
#792=AXIS2_PLACEMENT_3D('',#1086,#868,#869);
#793=AXIS2_PLACEMENT_3D('',#1090,#871,#872);
#794=AXIS2_PLACEMENT_3D('',#1094,#874,#875);
#795=AXIS2_PLACEMENT_3D('',#1098,#877,#878);
#796=AXIS2_PLACEMENT_3D('',#1102,#880,#881);
#797=AXIS2_PLACEMENT_3D('',#1106,#883,#884);
#798=AXIS2_PLACEMENT_3D('',#1110,#886,#887);
#799=AXIS2_PLACEMENT_3D('',#1114,#889,#890);
#800=AXIS2_PLACEMENT_3D('',#1128,#898,#899);
#801=AXIS2_PLACEMENT_3D('',#1132,#902,#903);
#802=AXIS2_PLACEMENT_3D('',#1134,#904,#905);
#803=AXIS2_PLACEMENT_3D('',#1136,#907,#908);
#804=AXIS2_PLACEMENT_3D('',#1139,#909,#910);
#805=AXIS2_PLACEMENT_3D('',#1142,#913,#914);
#806=AXIS2_PLACEMENT_3D('',#1146,#917,#918);
#807=AXIS2_PLACEMENT_3D('',#1148,#919,#920);
#808=AXIS2_PLACEMENT_3D('',#1150,#922,#923);
#809=AXIS2_PLACEMENT_3D('',#1153,#924,#925);
#810=AXIS2_PLACEMENT_3D('',#1156,#928,#929);
#811=AXIS2_PLACEMENT_3D('',#1160,#932,#933);
#812=AXIS2_PLACEMENT_3D('',#1162,#934,#935);
#813=AXIS2_PLACEMENT_3D('',#1164,#937,#938);
#814=AXIS2_PLACEMENT_3D('',#1167,#939,#940);
#815=AXIS2_PLACEMENT_3D('',#1170,#943,#944);
#816=AXIS2_PLACEMENT_3D('',#1172,#946,#947);
#817=AXIS2_PLACEMENT_3D('',#1175,#948,#949);
#818=AXIS2_PLACEMENT_3D('',#1178,#952,#953);
#819=AXIS2_PLACEMENT_3D('',#1180,#955,#956);
#820=AXIS2_PLACEMENT_3D('',#1183,#957,#958);
#821=AXIS2_PLACEMENT_3D('',#1186,#961,#962);
#822=AXIS2_PLACEMENT_3D('',#1188,#964,#965);
#823=AXIS2_PLACEMENT_3D('',#1191,#966,#967);
#824=AXIS2_PLACEMENT_3D('',#1194,#970,#971);
#825=AXIS2_PLACEMENT_3D('',#1196,#973,#974);
#826=AXIS2_PLACEMENT_3D('',#1198,#976,#977);
#827=AXIS2_PLACEMENT_3D('',#1200,#979,#980);
#828=AXIS2_PLACEMENT_3D('',#1202,#981,#982);
#829=AXIS2_PLACEMENT_3D('',#1205,#984,#985);
#830=AXIS2_PLACEMENT_3D('',#1206,#986,#987);
#831=AXIS2_PLACEMENT_3D('',#1207,#988,#989);
#832=AXIS2_PLACEMENT_3D('',#1209,#990,#991);
#833=AXIS2_PLACEMENT_3D('',#1212,#993,#994);
#834=AXIS2_PLACEMENT_3D('',#1213,#995,#996);
#835=AXIS2_PLACEMENT_3D('',#1214,#997,#998);
#836=AXIS2_PLACEMENT_3D('',#1223,#1003,#1004);
#837=AXIS2_PLACEMENT_3D('',#1232,#1009,#1010);
#838=AXIS2_PLACEMENT_3D('',#1238,#1014,#1015);
#839=AXIS2_PLACEMENT_3D('',#1244,#1019,#1020);
#840=AXIS2_PLACEMENT_3D('',#1253,#1025,#1026);
#841=AXIS2_PLACEMENT_3D('',#1259,#1030,#1031);
#842=AXIS2_PLACEMENT_3D('',#1262,#1034,#1035);
#843=AXIS2_PLACEMENT_3D('',#1264,#1037,#1038);
#844=AXIS2_PLACEMENT_3D('',#1268,#1041,#1042);
#845=AXIS2_PLACEMENT_3D('',#1270,#1044,#1045);
#846=AXIS2_PLACEMENT_3D('',#1272,#1047,#1048);
#847=AXIS2_PLACEMENT_3D('',#1276,#1051,#1052);
#848=AXIS2_PLACEMENT_3D('',#1278,#1054,#1055);
#849=AXIS2_PLACEMENT_3D('',#1285,#1060,#1061);
#850=AXIS2_PLACEMENT_3D('',#1287,#1063,#1064);
#851=AXIS2_PLACEMENT_3D('',#1289,#1066,#1067);
#852=DIRECTION('axis',(0.,0.,1.));
#853=DIRECTION('refdir',(1.,0.,0.));
#854=DIRECTION('center_axis',(2.22044604925031E-17,-1.,0.));
#855=DIRECTION('ref_axis',(-0.70710678118654,0.,0.707106781186555));
#856=DIRECTION('center_axis',(0.,1.,0.));
#857=DIRECTION('ref_axis',(-0.70710678118654,0.,0.707106781186555));
#858=DIRECTION('',(-2.22044604925031E-17,1.,0.));
#859=DIRECTION('center_axis',(0.,-1.,0.));
#860=DIRECTION('ref_axis',(-0.70710678118654,0.,0.707106781186555));
#861=DIRECTION('',(2.22044604925031E-17,-1.,0.));
#862=DIRECTION('center_axis',(0.,1.,0.));
#863=DIRECTION('ref_axis',(-1.,0.,0.));
#864=DIRECTION('',(-1.,0.,0.));
#865=DIRECTION('center_axis',(0.,-1.,0.));
#866=DIRECTION('ref_axis',(0.700909264299846,0.,0.713250449154186));
#867=DIRECTION('',(0.0174524064372837,0.,-0.999847695156391));
#868=DIRECTION('center_axis',(0.,1.,0.));
#869=DIRECTION('ref_axis',(-0.700909264299851,0.,-0.713250449154182));
#870=DIRECTION('',(1.,0.,3.19815315497785E-16));
#871=DIRECTION('center_axis',(0.,1.,0.));
#872=DIRECTION('ref_axis',(0.700909264299851,0.,-0.713250449154181));
#873=DIRECTION('',(0.0174524064372836,0.,0.999847695156391));
#874=DIRECTION('center_axis',(0.,-1.,0.));
#875=DIRECTION('ref_axis',(-0.700909264299848,0.,0.713250449154184));
#876=DIRECTION('',(-1.,0.,0.));
#877=DIRECTION('center_axis',(0.,-1.,0.));
#878=DIRECTION('ref_axis',(0.700909264299848,0.,0.713250449154184));
#879=DIRECTION('',(0.0174524064372836,0.,-0.999847695156391));
#880=DIRECTION('center_axis',(0.,1.,0.));
#881=DIRECTION('ref_axis',(-0.700909264299851,0.,-0.713250449154181));
#882=DIRECTION('',(1.,0.,-6.39630630995571E-16));
#883=DIRECTION('center_axis',(0.,1.,0.));
#884=DIRECTION('ref_axis',(0.70090926429985,0.,-0.713250449154182));
#885=DIRECTION('',(0.0174524064372837,0.,0.999847695156391));
#886=DIRECTION('center_axis',(0.,-1.,0.));
#887=DIRECTION('ref_axis',(-0.70090926429985,0.,0.713250449154182));
#888=DIRECTION('',(-1.,0.,0.));
#889=DIRECTION('center_axis',(0.,-1.,0.));
#890=DIRECTION('ref_axis',(0.70710678118654,0.,0.707106781186555));
#891=DIRECTION('',(0.,0.,1.));
#892=DIRECTION('',(1.,0.,0.));
#893=DIRECTION('',(0.5,0.,0.866025403784439));
#894=DIRECTION('',(1.,0.,0.));
#895=DIRECTION('',(0.5,0.,-0.866025403784439));
#896=DIRECTION('',(1.,0.,0.));
#897=DIRECTION('',(0.,0.,1.));
#898=DIRECTION('center_axis',(0.,0.,1.));
#899=DIRECTION('ref_axis',(1.,0.,0.));
#900=DIRECTION('',(1.,0.,0.));
#901=DIRECTION('',(0.,-1.,0.));
#902=DIRECTION('center_axis',(0.,1.,0.));
#903=DIRECTION('ref_axis',(0.700909264299846,0.,0.713250449154186));
#904=DIRECTION('center_axis',(0.,1.,0.));
#905=DIRECTION('ref_axis',(0.700909264299846,0.,0.713250449154186));
#906=DIRECTION('',(0.,1.,0.));
#907=DIRECTION('center_axis',(0.,-1.,0.));
#908=DIRECTION('ref_axis',(-0.700909264299848,0.,0.713250449154184));
#909=DIRECTION('center_axis',(0.,1.,0.));
#910=DIRECTION('ref_axis',(-0.700909264299848,0.,0.713250449154184));
#911=DIRECTION('',(0.,1.,0.));
#912=DIRECTION('',(0.,-1.,0.));
#913=DIRECTION('center_axis',(0.,0.,1.));
#914=DIRECTION('ref_axis',(1.,0.,0.));
#915=DIRECTION('',(1.,0.,0.));
#916=DIRECTION('',(0.,-1.,0.));
#917=DIRECTION('center_axis',(0.,1.,0.));
#918=DIRECTION('ref_axis',(0.700909264299848,0.,0.713250449154184));
#919=DIRECTION('center_axis',(0.,1.,0.));
#920=DIRECTION('ref_axis',(0.700909264299848,0.,0.713250449154184));
#921=DIRECTION('',(0.,1.,0.));
#922=DIRECTION('center_axis',(0.,-1.,0.));
#923=DIRECTION('ref_axis',(-0.70090926429985,0.,0.713250449154182));
#924=DIRECTION('center_axis',(0.,1.,0.));
#925=DIRECTION('ref_axis',(-0.70090926429985,0.,0.713250449154182));
#926=DIRECTION('',(0.,1.,0.));
#927=DIRECTION('',(0.,-1.,0.));
#928=DIRECTION('center_axis',(0.,0.,1.));
#929=DIRECTION('ref_axis',(1.,0.,0.));
#930=DIRECTION('',(1.,0.,0.));
#931=DIRECTION('',(0.,-1.,0.));
#932=DIRECTION('center_axis',(0.,1.,0.));
#933=DIRECTION('ref_axis',(0.70710678118654,0.,0.707106781186555));
#934=DIRECTION('center_axis',(0.,1.,0.));
#935=DIRECTION('ref_axis',(0.70710678118654,0.,0.707106781186555));
#936=DIRECTION('',(0.,1.,0.));
#937=DIRECTION('center_axis',(0.,1.,0.));
#938=DIRECTION('ref_axis',(0.70090926429985,0.,-0.713250449154182));
#939=DIRECTION('center_axis',(0.,-1.,0.));
#940=DIRECTION('ref_axis',(0.70090926429985,0.,-0.713250449154182));
#941=DIRECTION('',(0.,1.,0.));
#942=DIRECTION('',(0.,-1.,0.));
#943=DIRECTION('center_axis',(0.999847695156391,0.,-0.0174524064372837));
#944=DIRECTION('ref_axis',(-0.0174524064372837,0.,-0.999847695156391));
#945=DIRECTION('',(-0.0174524064372837,0.,-0.999847695156391));
#946=DIRECTION('center_axis',(0.,1.,0.));
#947=DIRECTION('ref_axis',(-0.700909264299851,0.,-0.713250449154181));
#948=DIRECTION('center_axis',(0.,-1.,0.));
#949=DIRECTION('ref_axis',(-0.700909264299851,0.,-0.713250449154181));
#950=DIRECTION('',(0.,1.,0.));
#951=DIRECTION('',(0.,-1.,0.));
#952=DIRECTION('center_axis',(-6.39630630995571E-16,0.,-1.));
#953=DIRECTION('ref_axis',(-1.,0.,6.39630630995571E-16));
#954=DIRECTION('',(-1.,0.,6.39630630995571E-16));
#955=DIRECTION('center_axis',(0.,1.,0.));
#956=DIRECTION('ref_axis',(0.700909264299851,0.,-0.713250449154181));
#957=DIRECTION('center_axis',(0.,-1.,0.));
#958=DIRECTION('ref_axis',(0.700909264299851,0.,-0.713250449154181));
#959=DIRECTION('',(0.,1.,0.));
#960=DIRECTION('',(0.,-1.,0.));
#961=DIRECTION('center_axis',(0.999847695156391,0.,-0.0174524064372836));
#962=DIRECTION('ref_axis',(-0.0174524064372836,0.,-0.999847695156391));
#963=DIRECTION('',(-0.0174524064372836,0.,-0.999847695156391));
#964=DIRECTION('center_axis',(0.,1.,0.));
#965=DIRECTION('ref_axis',(-0.700909264299851,0.,-0.713250449154182));
#966=DIRECTION('center_axis',(0.,-1.,0.));
#967=DIRECTION('ref_axis',(-0.700909264299851,0.,-0.713250449154182));
#968=DIRECTION('',(0.,1.,0.));
#969=DIRECTION('',(0.,-1.,0.));
#970=DIRECTION('center_axis',(3.19815315497785E-16,0.,-1.));
#971=DIRECTION('ref_axis',(-1.,0.,-3.19815315497785E-16));
#972=DIRECTION('',(-1.,0.,-3.19815315497785E-16));
#973=DIRECTION('center_axis',(-0.999847695156391,0.,-0.0174524064372836));
#974=DIRECTION('ref_axis',(-0.0174524064372836,0.,0.999847695156391));
#975=DIRECTION('',(-0.0174524064372836,0.,0.999847695156391));
#976=DIRECTION('center_axis',(-0.999847695156391,0.,-0.0174524064372837));
#977=DIRECTION('ref_axis',(-0.0174524064372837,0.,0.999847695156391));
#978=DIRECTION('',(-0.0174524064372837,0.,0.999847695156391));
#979=DIRECTION('center_axis',(0.,0.,1.));
#980=DIRECTION('ref_axis',(1.,0.,0.));
#981=DIRECTION('center_axis',(0.,0.,1.));
#982=DIRECTION('ref_axis',(1.,0.,0.));
#983=DIRECTION('',(0.,0.,1.));
#984=DIRECTION('center_axis',(0.,0.,1.));
#985=DIRECTION('ref_axis',(1.,0.,0.));
#986=DIRECTION('center_axis',(0.,0.,-1.));
#987=DIRECTION('ref_axis',(1.,0.,0.));
#988=DIRECTION('center_axis',(0.,0.,1.));
#989=DIRECTION('ref_axis',(1.,0.,0.));
#990=DIRECTION('center_axis',(0.,0.,1.));
#991=DIRECTION('ref_axis',(1.,0.,0.));
#992=DIRECTION('',(0.,0.,1.));
#993=DIRECTION('center_axis',(0.,0.,1.));
#994=DIRECTION('ref_axis',(1.,0.,0.));
#995=DIRECTION('center_axis',(0.,0.,-1.));
#996=DIRECTION('ref_axis',(1.,0.,0.));
#997=DIRECTION('center_axis',(0.,-1.,0.));
#998=DIRECTION('ref_axis',(0.,0.,1.));
#999=DIRECTION('',(0.5,0.,0.866025403784439));
#1000=DIRECTION('',(1.,0.,0.));
#1001=DIRECTION('',(0.5,0.,-0.866025403784439));
#1002=DIRECTION('',(-1.,0.,0.));
#1003=DIRECTION('center_axis',(0.,1.,0.));
#1004=DIRECTION('ref_axis',(0.,0.,-1.));
#1005=DIRECTION('',(-0.5,0.,-0.866025403784439));
#1006=DIRECTION('',(-1.,0.,0.));
#1007=DIRECTION('',(-0.5,0.,0.866025403784439));
#1008=DIRECTION('',(-1.,0.,0.));
#1009=DIRECTION('center_axis',(0.,0.,1.));
#1010=DIRECTION('ref_axis',(0.,1.,0.));
#1011=DIRECTION('',(0.,1.,0.));
#1012=DIRECTION('',(0.,-1.,0.));
#1013=DIRECTION('',(-1.,0.,0.));
#1014=DIRECTION('center_axis',(0.,-1.,0.));
#1015=DIRECTION('ref_axis',(0.,0.,1.));
#1016=DIRECTION('',(0.5,0.,0.866025403784439));
#1017=DIRECTION('',(0.5,0.,-0.866025403784439));
#1018=DIRECTION('',(-1.,0.,0.));
#1019=DIRECTION('center_axis',(0.,1.,0.));
#1020=DIRECTION('ref_axis',(0.,0.,-1.));
#1021=DIRECTION('',(-0.5,0.,-0.866025403784439));
#1022=DIRECTION('',(-1.,0.,0.));
#1023=DIRECTION('',(-0.5,0.,0.866025403784439));
#1024=DIRECTION('',(-1.,0.,0.));
#1025=DIRECTION('center_axis',(-0.866025403784439,0.,-0.5));
#1026=DIRECTION('ref_axis',(-0.5,0.,0.866025403784439));
#1027=DIRECTION('',(0.,1.,0.));
#1028=DIRECTION('',(-0.5,0.,0.866025403784439));
#1029=DIRECTION('',(0.,-1.,0.));
#1030=DIRECTION('center_axis',(-0.866025403784439,0.,-0.5));
#1031=DIRECTION('ref_axis',(-0.5,0.,0.866025403784439));
#1032=DIRECTION('',(0.,-1.,0.));
#1033=DIRECTION('',(0.,1.,0.));
#1034=DIRECTION('center_axis',(0.,0.,-1.));
#1035=DIRECTION('ref_axis',(-1.,0.,0.));
#1036=DIRECTION('',(0.,1.,0.));
#1037=DIRECTION('center_axis',(0.,0.,-1.));
#1038=DIRECTION('ref_axis',(-1.,0.,0.));
#1039=DIRECTION('',(0.,1.,0.));
#1040=DIRECTION('',(1.,0.,0.));
#1041=DIRECTION('center_axis',(0.866025403784439,0.,-0.5));
#1042=DIRECTION('ref_axis',(-0.5,0.,-0.866025403784439));
#1043=DIRECTION('',(0.,1.,0.));
#1044=DIRECTION('center_axis',(0.866025403784439,0.,-0.5));
#1045=DIRECTION('ref_axis',(-0.5,0.,-0.866025403784439));
#1046=DIRECTION('',(0.,1.,0.));
#1047=DIRECTION('center_axis',(0.866025403784439,0.,-0.5));
#1048=DIRECTION('ref_axis',(-0.5,0.,-0.866025403784439));
#1049=DIRECTION('',(0.,1.,0.));
#1050=DIRECTION('',(0.5,0.,0.866025403784439));
#1051=DIRECTION('center_axis',(-0.866025403784439,0.,-0.5));
#1052=DIRECTION('ref_axis',(-0.5,0.,0.866025403784439));
#1053=DIRECTION('',(0.,-1.,0.));
#1054=DIRECTION('center_axis',(0.,0.,1.));
#1055=DIRECTION('ref_axis',(1.,0.,0.));
#1056=DIRECTION('',(-1.,0.,0.));
#1057=DIRECTION('',(-2.22044604925031E-17,1.,0.));
#1058=DIRECTION('',(0.,-1.,0.));
#1059=DIRECTION('',(-1.,0.,0.));
#1060=DIRECTION('center_axis',(1.,0.,0.));
#1061=DIRECTION('ref_axis',(0.,1.,0.));
#1062=DIRECTION('',(0.,0.,1.));
#1063=DIRECTION('center_axis',(0.,-1.,0.));
#1064=DIRECTION('ref_axis',(1.,0.,0.));
#1065=DIRECTION('',(0.,0.,1.));
#1066=DIRECTION('center_axis',(-1.,-2.22044604925031E-17,0.));
#1067=DIRECTION('ref_axis',(2.22044604925031E-17,-1.,0.));
#1068=CARTESIAN_POINT('',(0.,0.,0.));
#1069=CARTESIAN_POINT('Origin',(-6.75,12.5,21.8));
#1070=CARTESIAN_POINT('',(-6.95,-25.,21.8));
#1071=CARTESIAN_POINT('',(-6.75,-25.,22.));
#1072=CARTESIAN_POINT('Origin',(-6.75,-25.,21.8));
#1073=CARTESIAN_POINT('',(-6.75,25.,22.));
#1074=CARTESIAN_POINT('',(-6.75,12.5,22.));
#1075=CARTESIAN_POINT('',(-6.95,25.,21.8));
#1076=CARTESIAN_POINT('Origin',(-6.75,25.,21.8));
#1077=CARTESIAN_POINT('',(-6.95,12.5,21.8));
#1078=CARTESIAN_POINT('Origin',(6.95,25.,0.));
#1079=CARTESIAN_POINT('',(-5.24653945262314,25.,22.));
#1080=CARTESIAN_POINT('',(-6.95,25.,22.));
#1081=CARTESIAN_POINT('',(-5.04656991359186,25.,21.8034904812875));
#1082=CARTESIAN_POINT('Origin',(-5.24653945262314,25.,21.8));
#1083=CARTESIAN_POINT('',(-4.75287566286199,25.,4.97775812579889));
#1084=CARTESIAN_POINT('',(-4.69908786460418,25.,1.89625722740556));
#1085=CARTESIAN_POINT('',(-3.7530279677056,25.,3.99521053223617));
#1086=CARTESIAN_POINT('Origin',(-3.7530279677056,25.,4.99521053223617));
#1087=CARTESIAN_POINT('',(-2.2469720322944,25.,3.99521053223617));
#1088=CARTESIAN_POINT('',(2.84286261541065,25.,3.99521053223617));
#1089=CARTESIAN_POINT('',(-1.24712433713801,25.,4.97775812579889));
#1090=CARTESIAN_POINT('Origin',(-2.2469720322944,25.,4.99521053223617));
#1091=CARTESIAN_POINT('',(-0.953430086408141,25.,21.8034904812875));
#1092=CARTESIAN_POINT('',(-1.14074411522647,25.,11.0722769573824));
#1093=CARTESIAN_POINT('',(-0.753460547376862,25.,22.));
#1094=CARTESIAN_POINT('Origin',(-0.753460547376862,25.,21.8));
#1095=CARTESIAN_POINT('',(0.753460547376862,25.,22.));
#1096=CARTESIAN_POINT('',(-6.95,25.,22.));
#1097=CARTESIAN_POINT('',(0.95343008640814,25.,21.8034904812875));
#1098=CARTESIAN_POINT('Origin',(0.753460547376862,25.,21.8));
#1099=CARTESIAN_POINT('',(1.247124337138,25.,4.97775812579889));
#1100=CARTESIAN_POINT('',(1.29999837592446,25.,1.94860647245931));
#1101=CARTESIAN_POINT('',(2.2469720322944,25.,3.99521053223617));
#1102=CARTESIAN_POINT('Origin',(2.2469720322944,25.,4.99521053223617));
#1103=CARTESIAN_POINT('',(3.7530279677056,25.,3.99521053223617));
#1104=CARTESIAN_POINT('',(5.84286261541065,25.,3.99521053223617));
#1105=CARTESIAN_POINT('',(4.75287566286199,25.,4.97775812579889));
#1106=CARTESIAN_POINT('Origin',(3.7530279677056,25.,4.99521053223617));
#1107=CARTESIAN_POINT('',(5.04656991359186,25.,21.8034904812875));
#1108=CARTESIAN_POINT('',(4.85834212530217,25.,11.0199277123287));
#1109=CARTESIAN_POINT('',(5.24653945262314,25.,22.));
#1110=CARTESIAN_POINT('Origin',(5.24653945262314,25.,21.8));
#1111=CARTESIAN_POINT('',(6.75,25.,22.));
#1112=CARTESIAN_POINT('',(-6.95,25.,22.));
#1113=CARTESIAN_POINT('',(6.95,25.,21.8));
#1114=CARTESIAN_POINT('Origin',(6.75,25.,21.8));
#1115=CARTESIAN_POINT('',(6.95,25.,0.));
#1116=CARTESIAN_POINT('',(6.95,25.,0.));
#1117=CARTESIAN_POINT('',(4.90705080756888,25.,0.));
#1118=CARTESIAN_POINT('',(-6.95,25.,0.));
#1119=CARTESIAN_POINT('',(3.175,25.,-3.));
#1120=CARTESIAN_POINT('',(3.9689099302036,25.,-1.6249076642539));
#1121=CARTESIAN_POINT('',(-3.175,25.,-3.));
#1122=CARTESIAN_POINT('',(1.5875,25.,-3.));
#1123=CARTESIAN_POINT('',(-4.90705080756888,25.,0.));
#1124=CARTESIAN_POINT('',(-3.10288452641917,25.,-3.1249076642539));
#1125=CARTESIAN_POINT('',(-6.95,25.,0.));
#1126=CARTESIAN_POINT('',(-6.95,25.,0.));
#1127=CARTESIAN_POINT('',(-6.95,25.,0.));
#1128=CARTESIAN_POINT('Origin',(0.,4.44089209850063E-15,22.));
#1129=CARTESIAN_POINT('',(-5.24653945262314,-25.,22.));
#1130=CARTESIAN_POINT('',(6.95,-25.,22.));
#1131=CARTESIAN_POINT('',(-5.24653945262314,-12.5,22.));
#1132=CARTESIAN_POINT('Origin',(-5.24653945262314,-12.5,21.8));
#1133=CARTESIAN_POINT('',(-5.04656991359186,-25.,21.8034904812875));
#1134=CARTESIAN_POINT('Origin',(-5.24653945262314,-25.,21.8));
#1135=CARTESIAN_POINT('',(-5.04656991359186,-12.5,21.8034904812875));
#1136=CARTESIAN_POINT('Origin',(-0.753460547376862,-12.5,21.8));
#1137=CARTESIAN_POINT('',(-0.95343008640814,-25.,21.8034904812875));
#1138=CARTESIAN_POINT('',(-0.753460547376862,-25.,22.));
#1139=CARTESIAN_POINT('Origin',(-0.753460547376862,-25.,21.8));
#1140=CARTESIAN_POINT('',(-0.753460547376862,-12.5,22.));
#1141=CARTESIAN_POINT('',(-0.95343008640814,-12.5,21.8034904812875));
#1142=CARTESIAN_POINT('Origin',(0.,4.44089209850063E-15,22.));
#1143=CARTESIAN_POINT('',(0.753460547376862,-25.,22.));
#1144=CARTESIAN_POINT('',(6.95,-25.,22.));
#1145=CARTESIAN_POINT('',(0.753460547376862,-12.5,22.));
#1146=CARTESIAN_POINT('Origin',(0.753460547376862,-12.5,21.8));
#1147=CARTESIAN_POINT('',(0.95343008640814,-25.,21.8034904812875));
#1148=CARTESIAN_POINT('Origin',(0.753460547376862,-25.,21.8));
#1149=CARTESIAN_POINT('',(0.95343008640814,-12.5,21.8034904812875));
#1150=CARTESIAN_POINT('Origin',(5.24653945262314,-12.5,21.8));
#1151=CARTESIAN_POINT('',(5.04656991359186,-25.,21.8034904812875));
#1152=CARTESIAN_POINT('',(5.24653945262314,-25.,22.));
#1153=CARTESIAN_POINT('Origin',(5.24653945262314,-25.,21.8));
#1154=CARTESIAN_POINT('',(5.24653945262314,-12.5,22.));
#1155=CARTESIAN_POINT('',(5.04656991359186,-12.5,21.8034904812875));
#1156=CARTESIAN_POINT('Origin',(0.,4.44089209850063E-15,22.));
#1157=CARTESIAN_POINT('',(6.75,-25.,22.));
#1158=CARTESIAN_POINT('',(6.95,-25.,22.));
#1159=CARTESIAN_POINT('',(6.75,-12.5,22.));
#1160=CARTESIAN_POINT('Origin',(6.75,-12.5,21.8));
#1161=CARTESIAN_POINT('',(6.95,-25.,21.8));
#1162=CARTESIAN_POINT('Origin',(6.75,-25.,21.8));
#1163=CARTESIAN_POINT('',(6.95,-12.5,21.8));
#1164=CARTESIAN_POINT('Origin',(3.7530279677056,-25.,4.99521053223617));
#1165=CARTESIAN_POINT('',(3.7530279677056,-25.,3.99521053223617));
#1166=CARTESIAN_POINT('',(4.75287566286199,-25.,4.97775812579889));
#1167=CARTESIAN_POINT('Origin',(3.7530279677056,-25.,4.99521053223617));
#1168=CARTESIAN_POINT('',(4.75287566286199,-25.,4.97775812579889));
#1169=CARTESIAN_POINT('',(3.7530279677056,-25.,3.99521053223617));
#1170=CARTESIAN_POINT('Origin',(5.05,-25.,22.));
#1171=CARTESIAN_POINT('',(4.85622524919353,-25.,10.8986519612875));
#1172=CARTESIAN_POINT('Origin',(2.2469720322944,-25.,4.99521053223617));
#1173=CARTESIAN_POINT('',(1.24712433713801,-25.,4.97775812579889));
#1174=CARTESIAN_POINT('',(2.2469720322944,-25.,3.99521053223617));
#1175=CARTESIAN_POINT('Origin',(2.2469720322944,-25.,4.99521053223617));
#1176=CARTESIAN_POINT('',(2.2469720322944,-25.,3.99521053223617));
#1177=CARTESIAN_POINT('',(1.24712433713801,-25.,4.97775812579889));
#1178=CARTESIAN_POINT('Origin',(4.73572523082129,-25.,3.99521053223617));
#1179=CARTESIAN_POINT('',(-1.10713738458935,-25.,3.99521053223617));
#1180=CARTESIAN_POINT('Origin',(-2.2469720322944,-25.,4.99521053223617));
#1181=CARTESIAN_POINT('',(-2.2469720322944,-25.,3.99521053223617));
#1182=CARTESIAN_POINT('',(-1.247124337138,-25.,4.97775812579889));
#1183=CARTESIAN_POINT('Origin',(-2.2469720322944,-25.,4.99521053223617));
#1184=CARTESIAN_POINT('',(-1.24712433713801,-25.,4.97775812579889));
#1185=CARTESIAN_POINT('',(-2.2469720322944,-25.,3.99521053223617));
#1186=CARTESIAN_POINT('Origin',(-0.95,-25.,22.));
#1187=CARTESIAN_POINT('',(-1.14286099133511,-25.,10.9510012063412));
#1188=CARTESIAN_POINT('Origin',(-3.7530279677056,-25.,4.99521053223617));
#1189=CARTESIAN_POINT('',(-4.75287566286199,-25.,4.97775812579889));
#1190=CARTESIAN_POINT('',(-3.7530279677056,-25.,3.99521053223617));
#1191=CARTESIAN_POINT('Origin',(-3.7530279677056,-25.,4.99521053223617));
#1192=CARTESIAN_POINT('',(-3.7530279677056,-25.,3.99521053223617));
#1193=CARTESIAN_POINT('',(-4.75287566286199,-25.,4.97775812579889));
#1194=CARTESIAN_POINT('Origin',(-1.26427476917871,-25.,3.99521053223617));
#1195=CARTESIAN_POINT('',(-4.10713738458935,-25.,3.99521053223617));
#1196=CARTESIAN_POINT('Origin',(1.26427476917871,-25.,3.99521053223617));
#1197=CARTESIAN_POINT('',(1.29788149981582,-25.,2.0698822235005));
#1198=CARTESIAN_POINT('Origin',(-4.73572523082129,-25.,3.99521053223617));
#1199=CARTESIAN_POINT('',(-4.70120474071282,-25.,2.01753297844675));
#1200=CARTESIAN_POINT('Origin',(5.55111512312578E-16,20.,-3.));
#1201=CARTESIAN_POINT('',(-2.,20.,-3.));
#1202=CARTESIAN_POINT('Origin',(5.55111512312578E-16,20.,-3.));
#1203=CARTESIAN_POINT('',(-2.,20.,3.5));
#1204=CARTESIAN_POINT('',(-2.,20.,-3.));
#1205=CARTESIAN_POINT('Origin',(5.55111512312578E-16,20.,3.5));
#1206=CARTESIAN_POINT('Origin',(5.55111512312578E-16,20.,3.5));
#1207=CARTESIAN_POINT('Origin',(5.55111512312578E-16,-20.,-3.));
#1208=CARTESIAN_POINT('',(-2.,-20.,-3.));
#1209=CARTESIAN_POINT('Origin',(5.55111512312578E-16,-20.,-3.));
#1210=CARTESIAN_POINT('',(-2.,-20.,3.5));
#1211=CARTESIAN_POINT('',(-2.,-20.,-3.));
#1212=CARTESIAN_POINT('Origin',(5.55111512312578E-16,-20.,3.5));
#1213=CARTESIAN_POINT('Origin',(5.55111512312578E-16,-20.,3.5));
#1214=CARTESIAN_POINT('Origin',(6.95,-15.,-3.));
#1215=CARTESIAN_POINT('',(3.175,-15.,-3.));
#1216=CARTESIAN_POINT('',(4.90705080756888,-15.,0.));
#1217=CARTESIAN_POINT('',(4.51290040378444,-15.,-0.682688525178436));
#1218=CARTESIAN_POINT('',(-3.175,-15.,-3.));
#1219=CARTESIAN_POINT('',(5.0625,-15.,-3.));
#1220=CARTESIAN_POINT('',(-4.90705080756888,-15.,0.));
#1221=CARTESIAN_POINT('',(-1.909375,-15.,-5.19212680332936));
#1222=CARTESIAN_POINT('',(6.95,-15.,0.));
#1223=CARTESIAN_POINT('Origin',(6.95,-5.49999999999999,0.));
#1224=CARTESIAN_POINT('',(4.90705080756888,-5.49999999999999,0.));
#1225=CARTESIAN_POINT('',(3.75235026918963,-5.49999999999999,-2.));
#1226=CARTESIAN_POINT('',(5.16241945662277,-5.49999999999999,0.442311474821564));
#1227=CARTESIAN_POINT('',(-4.90705080756888,-5.49999999999999,0.));
#1228=CARTESIAN_POINT('',(6.95,-5.49999999999999,0.));
#1229=CARTESIAN_POINT('',(-3.75235026918963,-5.49999999999999,-2.));
#1230=CARTESIAN_POINT('',(-2.55889405283833,-5.49999999999999,-4.06712680332936));
#1231=CARTESIAN_POINT('',(6.95,-5.49999999999999,-2.));
#1232=CARTESIAN_POINT('Origin',(6.95,-5.49999999999999,-2.));
#1233=CARTESIAN_POINT('',(3.75235026918963,5.50000000000001,-2.));
#1234=CARTESIAN_POINT('',(3.75235026918963,-15.25,-2.));
#1235=CARTESIAN_POINT('',(-3.75235026918963,5.50000000000001,-2.));
#1236=CARTESIAN_POINT('',(-3.75235026918963,-15.25,-2.));
#1237=CARTESIAN_POINT('',(6.95,5.50000000000001,-2.));
#1238=CARTESIAN_POINT('Origin',(6.95,5.50000000000001,-2.));
#1239=CARTESIAN_POINT('',(4.90705080756888,5.50000000000001,0.));
#1240=CARTESIAN_POINT('',(4.72940675473055,5.50000000000001,-0.307688525178436));
#1241=CARTESIAN_POINT('',(-4.90705080756888,5.50000000000001,0.));
#1242=CARTESIAN_POINT('',(-2.12588135094611,5.50000000000001,-4.81712680332936));
#1243=CARTESIAN_POINT('',(6.95,5.50000000000001,0.));
#1244=CARTESIAN_POINT('Origin',(6.95,15.,0.));
#1245=CARTESIAN_POINT('',(4.90705080756888,15.,0.));
#1246=CARTESIAN_POINT('',(3.175,15.,-3.));
#1247=CARTESIAN_POINT('',(5.16241945662277,15.,0.442311474821564));
#1248=CARTESIAN_POINT('',(-4.90705080756888,15.,0.));
#1249=CARTESIAN_POINT('',(6.95,15.,0.));
#1250=CARTESIAN_POINT('',(-3.175,15.,-3.));
#1251=CARTESIAN_POINT('',(-2.55889405283833,15.,-4.06712680332936));
#1252=CARTESIAN_POINT('',(5.0625,15.,-3.));
#1253=CARTESIAN_POINT('Origin',(-3.175,-25.,-3.));
#1254=CARTESIAN_POINT('',(-3.175,-25.,-3.));
#1255=CARTESIAN_POINT('',(-3.175,-25.,-3.));
#1256=CARTESIAN_POINT('',(-4.90705080756888,-25.,0.));
#1257=CARTESIAN_POINT('',(-3.175,-25.,-3.));
#1258=CARTESIAN_POINT('',(-4.90705080756888,-12.5,0.));
#1259=CARTESIAN_POINT('Origin',(-3.175,-25.,-3.));
#1260=CARTESIAN_POINT('',(-4.90705080756888,-12.5,0.));
#1261=CARTESIAN_POINT('',(-3.175,-25.,-3.));
#1262=CARTESIAN_POINT('Origin',(3.175,-25.,-3.));
#1263=CARTESIAN_POINT('',(3.175,-25.,-3.));
#1264=CARTESIAN_POINT('Origin',(3.175,-25.,-3.));
#1265=CARTESIAN_POINT('',(3.175,-25.,-3.));
#1266=CARTESIAN_POINT('',(3.175,-25.,-3.));
#1267=CARTESIAN_POINT('',(-3.175,-25.,-3.));
#1268=CARTESIAN_POINT('Origin',(4.90705080756888,-25.,0.));
#1269=CARTESIAN_POINT('',(4.90705080756888,-12.5,0.));
#1270=CARTESIAN_POINT('Origin',(4.90705080756888,-25.,0.));
#1271=CARTESIAN_POINT('',(4.90705080756888,-12.5,0.));
#1272=CARTESIAN_POINT('Origin',(4.90705080756888,-25.,0.));
#1273=CARTESIAN_POINT('',(4.90705080756888,-25.,0.));
#1274=CARTESIAN_POINT('',(4.90705080756888,-12.5,0.));
#1275=CARTESIAN_POINT('',(3.175,-25.,-3.));
#1276=CARTESIAN_POINT('Origin',(-3.175,-25.,-3.));
#1277=CARTESIAN_POINT('',(-4.90705080756888,-12.5,0.));
#1278=CARTESIAN_POINT('Origin',(0.,4.44089209850063E-15,0.));
#1279=CARTESIAN_POINT('',(-6.95,-25.,0.));
#1280=CARTESIAN_POINT('',(6.95,-25.,0.));
#1281=CARTESIAN_POINT('',(-6.95,-25.,0.));
#1282=CARTESIAN_POINT('',(6.95,-25.,0.));
#1283=CARTESIAN_POINT('',(6.95,25.,0.));
#1284=CARTESIAN_POINT('',(6.95,-25.,0.));
#1285=CARTESIAN_POINT('Origin',(6.95,-25.,0.));
#1286=CARTESIAN_POINT('',(6.95,-25.,0.));
#1287=CARTESIAN_POINT('Origin',(-6.95,-25.,0.));
#1288=CARTESIAN_POINT('',(-6.95,-25.,0.));
#1289=CARTESIAN_POINT('Origin',(-6.95,25.,0.));
#1290=UNCERTAINTY_MEASURE_WITH_UNIT(LENGTH_MEASURE(0.01),#1294,
'DISTANCE_ACCURACY_VALUE',
'Maximum model space distance between geometric entities at asserted c
onnectivities');
#1291=UNCERTAINTY_MEASURE_WITH_UNIT(LENGTH_MEASURE(0.01),#1294,
'DISTANCE_ACCURACY_VALUE',
'Maximum model space distance between geometric entities at asserted c
onnectivities');
#1292=(
GEOMETRIC_REPRESENTATION_CONTEXT(3)
GLOBAL_UNCERTAINTY_ASSIGNED_CONTEXT((#1290))
GLOBAL_UNIT_ASSIGNED_CONTEXT((#1294,#1296,#1297))
REPRESENTATION_CONTEXT('','3D')
);
#1293=(
GEOMETRIC_REPRESENTATION_CONTEXT(3)
GLOBAL_UNCERTAINTY_ASSIGNED_CONTEXT((#1291))
GLOBAL_UNIT_ASSIGNED_CONTEXT((#1294,#1296,#1297))
REPRESENTATION_CONTEXT('','3D')
);
#1294=(
LENGTH_UNIT()
NAMED_UNIT(*)
SI_UNIT(.MILLI.,.METRE.)
);
#1295=(
LENGTH_UNIT()
NAMED_UNIT(*)
SI_UNIT($,.METRE.)
);
#1296=(
NAMED_UNIT(*)
PLANE_ANGLE_UNIT()
SI_UNIT($,.RADIAN.)
);
#1297=(
NAMED_UNIT(*)
SI_UNIT($,.STERADIAN.)
SOLID_ANGLE_UNIT()
);
#1298=SHAPE_DEFINITION_REPRESENTATION(#1299,#1300);
#1299=PRODUCT_DEFINITION_SHAPE('',$,#1302);
#1300=SHAPE_REPRESENTATION('',(#786),#1292);
#1301=PRODUCT_DEFINITION_CONTEXT('part definition',#1306,'design');
#1302=PRODUCT_DEFINITION('ATS-TI1OP-521-C1-R1','ATS-TI1OP-521-C1-R1 v2',
#1303,#1301);
#1303=PRODUCT_DEFINITION_FORMATION('',$,#1308);
#1304=PRODUCT_RELATED_PRODUCT_CATEGORY('ATS-TI1OP-521-C1-R1 v2',
'ATS-TI1OP-521-C1-R1 v2',(#1308));
#1305=APPLICATION_PROTOCOL_DEFINITION('international standard',
'automotive_design',2009,#1306);
#1306=APPLICATION_CONTEXT(
'Core Data for Automotive Mechanical Design Process');
#1307=PRODUCT_CONTEXT('part definition',#1306,'mechanical');
#1308=PRODUCT('ATS-TI1OP-521-C1-R1','ATS-TI1OP-521-C1-R1 v2',$,(#1307));
#1309=PRESENTATION_STYLE_ASSIGNMENT((#1311));
#1310=PRESENTATION_STYLE_ASSIGNMENT((#1312));
#1311=SURFACE_STYLE_USAGE(.BOTH.,#1313);
#1312=SURFACE_STYLE_USAGE(.BOTH.,#1314);
#1313=SURFACE_SIDE_STYLE('',(#1315));
#1314=SURFACE_SIDE_STYLE('',(#1316));
#1315=SURFACE_STYLE_FILL_AREA(#1317);
#1316=SURFACE_STYLE_FILL_AREA(#1318);
#1317=FILL_AREA_STYLE('Steel - Satin',(#1319));
#1318=FILL_AREA_STYLE('Aluminum - Anodized Rough (Grey)',(#1320));
#1319=FILL_AREA_STYLE_COLOUR('Steel - Satin',#1321);
#1320=FILL_AREA_STYLE_COLOUR('Aluminum - Anodized Rough (Grey)',#1322);
#1321=COLOUR_RGB('Steel - Satin',0.627450980392157,0.627450980392157,0.627450980392157);
#1322=COLOUR_RGB('Aluminum - Anodized Rough (Grey)',0.537254901960784,0.537254901960784,
0.537254901960784);
ENDSEC;
END-ISO-10303-21;
