%TF.GenerationSoftware,KiCad,Pcbnew,10.0.5*%
%TF.CreationDate,2026-08-12T13:52:11+01:00*%
%TF.ProjectId,protoAmp,70726f74-6f41-46d7-902e-6b696361645f,rev?*%
%TF.SameCoordinates,Original*%
%TF.FileFunction,Paste,Top*%
%TF.FilePolarity,Positive*%
%FSLAX46Y46*%
G04 Gerber Fmt 4.6, Leading zero omitted, Abs format (unit mm)*
G04 Created by KiCad (PCBNEW 10.0.5) date 2026-08-12 13:52:11*
%MOMM*%
%LPD*%
G01*
G04 APERTURE LIST*
G04 Aperture macros list*
%AMRoundRect*
0 Rectangle with rounded corners*
0 $1 Rounding radius*
0 $2 $3 $4 $5 $6 $7 $8 $9 X,Y pos of 4 corners*
0 Add a 4 corners polygon primitive as box body*
4,1,4,$2,$3,$4,$5,$6,$7,$8,$9,$2,$3,0*
0 Add four circle primitives for the rounded corners*
1,1,$1+$1,$2,$3*
1,1,$1+$1,$4,$5*
1,1,$1+$1,$6,$7*
1,1,$1+$1,$8,$9*
0 Add four rect primitives between the rounded corners*
20,1,$1+$1,$2,$3,$4,$5,0*
20,1,$1+$1,$4,$5,$6,$7,0*
20,1,$1+$1,$6,$7,$8,$9,0*
20,1,$1+$1,$8,$9,$2,$3,0*%
G04 Aperture macros list end*
%ADD10RoundRect,0.225000X0.250000X-0.225000X0.250000X0.225000X-0.250000X0.225000X-0.250000X-0.225000X0*%
%ADD11RoundRect,0.135000X-0.185000X0.135000X-0.185000X-0.135000X0.185000X-0.135000X0.185000X0.135000X0*%
%ADD12RoundRect,0.135000X0.135000X0.185000X-0.135000X0.185000X-0.135000X-0.185000X0.135000X-0.185000X0*%
%ADD13RoundRect,0.225000X-0.250000X0.225000X-0.250000X-0.225000X0.250000X-0.225000X0.250000X0.225000X0*%
%ADD14RoundRect,0.140000X0.140000X0.170000X-0.140000X0.170000X-0.140000X-0.170000X0.140000X-0.170000X0*%
%ADD15R,1.100000X1.300000*%
%ADD16RoundRect,0.135000X0.185000X-0.135000X0.185000X0.135000X-0.185000X0.135000X-0.185000X-0.135000X0*%
%ADD17RoundRect,0.200000X-0.275000X0.200000X-0.275000X-0.200000X0.275000X-0.200000X0.275000X0.200000X0*%
%ADD18RoundRect,0.250000X-0.475000X0.250000X-0.475000X-0.250000X0.475000X-0.250000X0.475000X0.250000X0*%
%ADD19RoundRect,0.225000X0.225000X0.250000X-0.225000X0.250000X-0.225000X-0.250000X0.225000X-0.250000X0*%
%ADD20RoundRect,0.090000X0.810000X-1.510000X0.810000X1.510000X-0.810000X1.510000X-0.810000X-1.510000X0*%
%ADD21RoundRect,0.250000X-0.450000X0.262500X-0.450000X-0.262500X0.450000X-0.262500X0.450000X0.262500X0*%
%ADD22RoundRect,0.250000X-0.250000X-0.475000X0.250000X-0.475000X0.250000X0.475000X-0.250000X0.475000X0*%
%ADD23RoundRect,0.140000X0.170000X-0.140000X0.170000X0.140000X-0.170000X0.140000X-0.170000X-0.140000X0*%
%ADD24RoundRect,0.200000X0.200000X0.275000X-0.200000X0.275000X-0.200000X-0.275000X0.200000X-0.275000X0*%
%ADD25RoundRect,0.250000X0.250000X0.475000X-0.250000X0.475000X-0.250000X-0.475000X0.250000X-0.475000X0*%
%ADD26RoundRect,0.217000X2.283000X-1.333000X2.283000X1.333000X-2.283000X1.333000X-2.283000X-1.333000X0*%
%ADD27RoundRect,0.217000X-2.283000X1.333000X-2.283000X-1.333000X2.283000X-1.333000X2.283000X1.333000X0*%
%ADD28RoundRect,0.250000X-1.100000X0.325000X-1.100000X-0.325000X1.100000X-0.325000X1.100000X0.325000X0*%
%ADD29R,0.800000X1.500000*%
%ADD30R,0.600000X0.300000*%
%ADD31R,0.400000X1.730000*%
%ADD32RoundRect,0.140000X-0.140000X-0.170000X0.140000X-0.170000X0.140000X0.170000X-0.140000X0.170000X0*%
%ADD33RoundRect,0.250000X-0.262500X-0.450000X0.262500X-0.450000X0.262500X0.450000X-0.262500X0.450000X0*%
%ADD34RoundRect,0.182500X-0.322500X0.182500X-0.322500X-0.182500X0.322500X-0.182500X0.322500X0.182500X0*%
%ADD35RoundRect,0.062500X-0.062500X0.312500X-0.062500X-0.312500X0.062500X-0.312500X0.062500X0.312500X0*%
%ADD36RoundRect,0.135000X-0.135000X-0.185000X0.135000X-0.185000X0.135000X0.185000X-0.135000X0.185000X0*%
%ADD37RoundRect,0.140000X-0.170000X0.140000X-0.170000X-0.140000X0.170000X-0.140000X0.170000X0.140000X0*%
%ADD38RoundRect,0.250000X-0.325000X-0.650000X0.325000X-0.650000X0.325000X0.650000X-0.325000X0.650000X0*%
%ADD39RoundRect,0.150000X-0.587500X-0.150000X0.587500X-0.150000X0.587500X0.150000X-0.587500X0.150000X0*%
%ADD40RoundRect,0.250000X0.450000X-0.262500X0.450000X0.262500X-0.450000X0.262500X-0.450000X-0.262500X0*%
%ADD41RoundRect,0.150000X0.150000X-0.587500X0.150000X0.587500X-0.150000X0.587500X-0.150000X-0.587500X0*%
%ADD42RoundRect,0.015000X-0.435000X0.135000X-0.435000X-0.135000X0.435000X-0.135000X0.435000X0.135000X0*%
%ADD43RoundRect,0.200000X0.275000X-0.200000X0.275000X0.200000X-0.275000X0.200000X-0.275000X-0.200000X0*%
%ADD44RoundRect,0.225000X-0.225000X-0.250000X0.225000X-0.250000X0.225000X0.250000X-0.225000X0.250000X0*%
%ADD45RoundRect,0.200000X-0.200000X-0.275000X0.200000X-0.275000X0.200000X0.275000X-0.200000X0.275000X0*%
%ADD46RoundRect,0.375000X0.625000X0.375000X-0.625000X0.375000X-0.625000X-0.375000X0.625000X-0.375000X0*%
%ADD47RoundRect,0.500000X0.500000X1.400000X-0.500000X1.400000X-0.500000X-1.400000X0.500000X-1.400000X0*%
%ADD48RoundRect,0.217000X-1.333000X-2.283000X1.333000X-2.283000X1.333000X2.283000X-1.333000X2.283000X0*%
%ADD49RoundRect,0.250000X-1.000000X-0.650000X1.000000X-0.650000X1.000000X0.650000X-1.000000X0.650000X0*%
%ADD50R,1.500000X0.450000*%
%ADD51R,1.000000X1.000000*%
%ADD52RoundRect,0.150000X0.512500X0.150000X-0.512500X0.150000X-0.512500X-0.150000X0.512500X-0.150000X0*%
%ADD53R,0.420000X0.700000*%
%ADD54R,0.420000X0.540000*%
%ADD55R,2.370000X1.710000*%
%ADD56RoundRect,0.100000X0.100000X-0.637500X0.100000X0.637500X-0.100000X0.637500X-0.100000X-0.637500X0*%
%ADD57RoundRect,0.250000X0.475000X-0.250000X0.475000X0.250000X-0.475000X0.250000X-0.475000X-0.250000X0*%
%ADD58RoundRect,0.218750X-0.256250X0.218750X-0.256250X-0.218750X0.256250X-0.218750X0.256250X0.218750X0*%
%ADD59RoundRect,0.250000X0.325000X0.650000X-0.325000X0.650000X-0.325000X-0.650000X0.325000X-0.650000X0*%
%ADD60RoundRect,0.075000X-0.662500X-0.075000X0.662500X-0.075000X0.662500X0.075000X-0.662500X0.075000X0*%
%ADD61RoundRect,0.075000X-0.075000X-0.662500X0.075000X-0.662500X0.075000X0.662500X-0.075000X0.662500X0*%
G04 APERTURE END LIST*
D10*
%TO.C,C99*%
X172974000Y-125713000D03*
X172974000Y-124163000D03*
%TD*%
D11*
%TO.C,R24*%
X108712000Y-108934000D03*
X108712000Y-109954000D03*
%TD*%
D12*
%TO.C,R32*%
X111762000Y-77948000D03*
X110742000Y-77948000D03*
%TD*%
D13*
%TO.C,C98*%
X172974000Y-118575000D03*
X172974000Y-120125000D03*
%TD*%
D14*
%TO.C,C42*%
X115796000Y-80234000D03*
X114836000Y-80234000D03*
%TD*%
D15*
%TO.C,Y1*%
X110810000Y-98797000D03*
X110810000Y-101097000D03*
X112710000Y-101097000D03*
X112710000Y-98797000D03*
%TD*%
D16*
%TO.C,R7*%
X106680000Y-145980000D03*
X106680000Y-144960000D03*
%TD*%
%TO.C,R18*%
X105664000Y-113002000D03*
X105664000Y-111982000D03*
%TD*%
D12*
%TO.C,R36*%
X111762000Y-82520000D03*
X110742000Y-82520000D03*
%TD*%
D17*
%TO.C,R63*%
X137922000Y-135543000D03*
X137922000Y-137193000D03*
%TD*%
D18*
%TO.C,C61*%
X146035000Y-66264000D03*
X146035000Y-68164000D03*
%TD*%
D19*
%TO.C,C74*%
X216167000Y-91664000D03*
X214617000Y-91664000D03*
%TD*%
D20*
%TO.C,U7*%
X116078000Y-44474000D03*
X113538000Y-44474000D03*
X110998000Y-44474000D03*
X108458000Y-44474000D03*
X105918000Y-44474000D03*
X103378000Y-44474000D03*
X100838000Y-44474000D03*
X98298000Y-44474000D03*
X95758000Y-44474000D03*
X93218000Y-44474000D03*
X90678000Y-44474000D03*
X88138000Y-44474000D03*
X85598000Y-44474000D03*
X83058000Y-44474000D03*
X80518000Y-44474000D03*
X80518000Y-62714000D03*
X83058000Y-62714000D03*
X85598000Y-62714000D03*
X88138000Y-62714000D03*
X90678000Y-62714000D03*
X93218000Y-62714000D03*
X95758000Y-62714000D03*
X98298000Y-62714000D03*
X100838000Y-62714000D03*
X103378000Y-62714000D03*
X105918000Y-62714000D03*
X108458000Y-62714000D03*
X110998000Y-62714000D03*
X113538000Y-62714000D03*
X116078000Y-62714000D03*
%TD*%
D17*
%TO.C,R5*%
X94425000Y-137067000D03*
X94425000Y-138717000D03*
%TD*%
D21*
%TO.C,R53*%
X176784000Y-58239500D03*
X176784000Y-60064500D03*
%TD*%
D22*
%TO.C,C32*%
X92522000Y-106650000D03*
X94422000Y-106650000D03*
%TD*%
D23*
%TO.C,C34*%
X110236000Y-109924000D03*
X110236000Y-108964000D03*
%TD*%
D24*
%TO.C,R51*%
X212915000Y-91664000D03*
X211265000Y-91664000D03*
%TD*%
D25*
%TO.C,C40*%
X103820000Y-80234000D03*
X101920000Y-80234000D03*
%TD*%
D19*
%TO.C,C56*%
X170447000Y-59152000D03*
X168897000Y-59152000D03*
%TD*%
D26*
%TO.C,L3*%
X203200000Y-52590000D03*
X203200000Y-41440000D03*
%TD*%
D27*
%TO.C,L4*%
X203200000Y-81796000D03*
X203200000Y-92946000D03*
%TD*%
D14*
%TO.C,C39*%
X115796000Y-77948000D03*
X114836000Y-77948000D03*
%TD*%
D10*
%TO.C,C79*%
X174752000Y-59165000D03*
X174752000Y-57615000D03*
%TD*%
D28*
%TO.C,C96*%
X172466000Y-147563000D03*
X172466000Y-150513000D03*
%TD*%
D19*
%TO.C,C94*%
X170447000Y-133828000D03*
X168897000Y-133828000D03*
%TD*%
%TO.C,C55*%
X170447000Y-57374000D03*
X168897000Y-57374000D03*
%TD*%
D25*
%TO.C,C41*%
X103820000Y-82520000D03*
X101920000Y-82520000D03*
%TD*%
D29*
%TO.C,IC1*%
X111164000Y-146640000D03*
D30*
X111164000Y-147690000D03*
X111164000Y-148140000D03*
X111164000Y-148590000D03*
X112864000Y-148590000D03*
X112864000Y-148140000D03*
X112864000Y-147690000D03*
D29*
X112864000Y-146640000D03*
D31*
X112014000Y-146525000D03*
%TD*%
D17*
%TO.C,R48*%
X137922000Y-74583000D03*
X137922000Y-76233000D03*
%TD*%
D32*
%TO.C,C27*%
X92992000Y-97252000D03*
X93952000Y-97252000D03*
%TD*%
D13*
%TO.C,C100*%
X172974000Y-127719000D03*
X172974000Y-129269000D03*
%TD*%
D12*
%TO.C,R10*%
X93982000Y-87854000D03*
X92962000Y-87854000D03*
%TD*%
D33*
%TO.C,R37*%
X139788500Y-68804000D03*
X141613500Y-68804000D03*
%TD*%
D27*
%TO.C,L5*%
X188468000Y-81796000D03*
X188468000Y-92946000D03*
%TD*%
D34*
%TO.C,U1*%
X94288000Y-132870000D03*
X93038000Y-132870000D03*
X94288000Y-133770000D03*
X93038000Y-133770000D03*
D35*
X94663000Y-131845000D03*
X94163000Y-131845000D03*
X93663000Y-131845000D03*
X93163000Y-131845000D03*
X92663000Y-131845000D03*
X92663000Y-134795000D03*
X93163000Y-134795000D03*
X93663000Y-134795000D03*
X94163000Y-134795000D03*
X94663000Y-134795000D03*
%TD*%
D24*
%TO.C,R73*%
X196405000Y-121890000D03*
X194755000Y-121890000D03*
%TD*%
D13*
%TO.C,C53*%
X166370000Y-73363000D03*
X166370000Y-74913000D03*
%TD*%
D36*
%TO.C,R29*%
X106170000Y-75662000D03*
X107190000Y-75662000D03*
%TD*%
D24*
%TO.C,R2*%
X98552000Y-130018000D03*
X96902000Y-130018000D03*
%TD*%
D22*
%TO.C,C26*%
X92522000Y-95220000D03*
X94422000Y-95220000D03*
%TD*%
D37*
%TO.C,C8*%
X106680000Y-148080000D03*
X106680000Y-149040000D03*
%TD*%
D26*
%TO.C,L2*%
X188468000Y-52590000D03*
X188468000Y-41440000D03*
%TD*%
D38*
%TO.C,C108*%
X196645000Y-154148000D03*
X199595000Y-154148000D03*
%TD*%
D32*
%TO.C,C33*%
X92992000Y-104872000D03*
X93952000Y-104872000D03*
%TD*%
D36*
%TO.C,R34*%
X106170000Y-82520000D03*
X107190000Y-82520000D03*
%TD*%
D11*
%TO.C,R6*%
X108966000Y-145002000D03*
X108966000Y-146022000D03*
%TD*%
D28*
%TO.C,C52*%
X172466000Y-86603000D03*
X172466000Y-89553000D03*
%TD*%
D19*
%TO.C,C70*%
X216167000Y-42642000D03*
X214617000Y-42642000D03*
%TD*%
D16*
%TO.C,R19*%
X107442000Y-113002000D03*
X107442000Y-111982000D03*
%TD*%
D36*
%TO.C,R17*%
X93978000Y-110333000D03*
X94998000Y-110333000D03*
%TD*%
D16*
%TO.C,R21*%
X104140000Y-109954000D03*
X104140000Y-108934000D03*
%TD*%
D11*
%TO.C,R28*%
X114300000Y-104870000D03*
X114300000Y-105890000D03*
%TD*%
D19*
%TO.C,C91*%
X170447000Y-120112000D03*
X168897000Y-120112000D03*
%TD*%
D32*
%TO.C,C24*%
X102644000Y-90648000D03*
X103604000Y-90648000D03*
%TD*%
D36*
%TO.C,R20*%
X93978000Y-111730000D03*
X94998000Y-111730000D03*
%TD*%
D39*
%TO.C,Q2*%
X110314500Y-104938000D03*
X110314500Y-106838000D03*
X112189500Y-105888000D03*
%TD*%
D11*
%TO.C,R16*%
X108712000Y-91662000D03*
X108712000Y-92682000D03*
%TD*%
D12*
%TO.C,R26*%
X93982000Y-80996000D03*
X92962000Y-80996000D03*
%TD*%
D18*
%TO.C,C4*%
X107379000Y-138974000D03*
X107379000Y-140874000D03*
%TD*%
D32*
%TO.C,C18*%
X102644000Y-87092000D03*
X103604000Y-87092000D03*
%TD*%
D40*
%TO.C,R60*%
X143749000Y-130676500D03*
X143749000Y-128851500D03*
%TD*%
D36*
%TO.C,R9*%
X108964000Y-150592000D03*
X109984000Y-150592000D03*
%TD*%
D10*
%TO.C,C81*%
X176530000Y-68309000D03*
X176530000Y-66759000D03*
%TD*%
D41*
%TO.C,Q3*%
X136972000Y-141369500D03*
X138872000Y-141369500D03*
X137922000Y-139494500D03*
%TD*%
D21*
%TO.C,R67*%
X176784000Y-119199500D03*
X176784000Y-121024500D03*
%TD*%
D42*
%TO.C,J1*%
X86762000Y-130600000D03*
X86762000Y-131100000D03*
X86762000Y-131600000D03*
X86762000Y-132100000D03*
X86762000Y-132600000D03*
X86762000Y-133100000D03*
X86762000Y-133600000D03*
X86762000Y-134100000D03*
X86762000Y-134600000D03*
X86762000Y-135100000D03*
X86762000Y-135600000D03*
X86762000Y-136100000D03*
%TD*%
D22*
%TO.C,C11*%
X92522000Y-85822000D03*
X94422000Y-85822000D03*
%TD*%
D24*
%TO.C,R58*%
X137223000Y-102840000D03*
X135573000Y-102840000D03*
%TD*%
D43*
%TO.C,R72*%
X145542000Y-146337000D03*
X145542000Y-144687000D03*
%TD*%
D24*
%TO.C,R52*%
X212915000Y-83282000D03*
X211265000Y-83282000D03*
%TD*%
D19*
%TO.C,C90*%
X170447000Y-118334000D03*
X168897000Y-118334000D03*
%TD*%
D33*
%TO.C,R59*%
X139788500Y-129764000D03*
X141613500Y-129764000D03*
%TD*%
D44*
%TO.C,C110*%
X197345000Y-104618000D03*
X198895000Y-104618000D03*
%TD*%
D13*
%TO.C,C97*%
X166370000Y-134323000D03*
X166370000Y-135873000D03*
%TD*%
D40*
%TO.C,R54*%
X178816000Y-64128500D03*
X178816000Y-62303500D03*
%TD*%
D44*
%TO.C,C84*%
X151117000Y-123892000D03*
X152667000Y-123892000D03*
%TD*%
D14*
%TO.C,C29*%
X106906000Y-88870000D03*
X105946000Y-88870000D03*
%TD*%
D25*
%TO.C,C36*%
X103820000Y-75662000D03*
X101920000Y-75662000D03*
%TD*%
D44*
%TO.C,C49*%
X151117000Y-70074000D03*
X152667000Y-70074000D03*
%TD*%
D22*
%TO.C,C12*%
X92522000Y-91156000D03*
X94422000Y-91156000D03*
%TD*%
D24*
%TO.C,R46*%
X137223000Y-41880000D03*
X135573000Y-41880000D03*
%TD*%
D22*
%TO.C,C31*%
X105984000Y-84806000D03*
X107884000Y-84806000D03*
%TD*%
D10*
%TO.C,C101*%
X172974000Y-133587000D03*
X172974000Y-132037000D03*
%TD*%
D12*
%TO.C,R11*%
X93982000Y-89124000D03*
X92962000Y-89124000D03*
%TD*%
D19*
%TO.C,C58*%
X170447000Y-72868000D03*
X168897000Y-72868000D03*
%TD*%
D45*
%TO.C,R61*%
X137097000Y-143734000D03*
X138747000Y-143734000D03*
%TD*%
D44*
%TO.C,C83*%
X151117000Y-121382000D03*
X152667000Y-121382000D03*
%TD*%
D45*
%TO.C,R3*%
X96902000Y-127478000D03*
X98552000Y-127478000D03*
%TD*%
D44*
%TO.C,C73*%
X204965000Y-96490000D03*
X206515000Y-96490000D03*
%TD*%
D38*
%TO.C,C106*%
X196645000Y-102332000D03*
X199595000Y-102332000D03*
%TD*%
D43*
%TO.C,R40*%
X152654000Y-53627000D03*
X152654000Y-51977000D03*
%TD*%
D33*
%TO.C,R57*%
X141416000Y-116048000D03*
X143241000Y-116048000D03*
%TD*%
D36*
%TO.C,R12*%
X92962000Y-83790000D03*
X93982000Y-83790000D03*
%TD*%
D46*
%TO.C,U5*%
X113640000Y-119618000D03*
X113640000Y-117318000D03*
D47*
X107340000Y-117318000D03*
D46*
X113640000Y-115018000D03*
%TD*%
D16*
%TO.C,R25*%
X90932000Y-82268000D03*
X90932000Y-81248000D03*
%TD*%
D32*
%TO.C,C7*%
X114836000Y-151100000D03*
X115796000Y-151100000D03*
%TD*%
D23*
%TO.C,C22*%
X97282000Y-77440000D03*
X97282000Y-76480000D03*
%TD*%
D14*
%TO.C,C37*%
X115796000Y-75662000D03*
X114836000Y-75662000D03*
%TD*%
D43*
%TO.C,R42*%
X149098000Y-85377000D03*
X149098000Y-83727000D03*
%TD*%
D22*
%TO.C,C17*%
X101920000Y-84806000D03*
X103820000Y-84806000D03*
%TD*%
D43*
%TO.C,R41*%
X152654000Y-85377000D03*
X152654000Y-83727000D03*
%TD*%
D44*
%TO.C,C48*%
X151117000Y-67788000D03*
X152667000Y-67788000D03*
%TD*%
D22*
%TO.C,C6*%
X111064000Y-143480000D03*
X112964000Y-143480000D03*
%TD*%
D19*
%TO.C,C78*%
X216167000Y-83282000D03*
X214617000Y-83282000D03*
%TD*%
D11*
%TO.C,R23*%
X105664000Y-108934000D03*
X105664000Y-109954000D03*
%TD*%
D13*
%TO.C,C93*%
X156718000Y-133307000D03*
X156718000Y-134857000D03*
%TD*%
D25*
%TO.C,C10*%
X121600000Y-138176000D03*
X119700000Y-138176000D03*
%TD*%
D11*
%TO.C,R8*%
X108966000Y-148050000D03*
X108966000Y-149070000D03*
%TD*%
D48*
%TO.C,L1*%
X118148000Y-147036000D03*
X129298000Y-147036000D03*
%TD*%
D18*
%TO.C,C28*%
X108712000Y-94524000D03*
X108712000Y-96424000D03*
%TD*%
D13*
%TO.C,C104*%
X174752000Y-132037000D03*
X174752000Y-133587000D03*
%TD*%
D12*
%TO.C,R35*%
X111762000Y-80234000D03*
X110742000Y-80234000D03*
%TD*%
D16*
%TO.C,R22*%
X107188000Y-109954000D03*
X107188000Y-108934000D03*
%TD*%
D32*
%TO.C,C15*%
X97818000Y-92934000D03*
X98778000Y-92934000D03*
%TD*%
%TO.C,C19*%
X105946000Y-90902000D03*
X106906000Y-90902000D03*
%TD*%
D43*
%TO.C,R66*%
X152654000Y-146337000D03*
X152654000Y-144687000D03*
%TD*%
D16*
%TO.C,R15*%
X114300000Y-100457000D03*
X114300000Y-99437000D03*
%TD*%
D40*
%TO.C,R56*%
X176784000Y-72002500D03*
X176784000Y-70177500D03*
%TD*%
D33*
%TO.C,R39*%
X141416000Y-55088000D03*
X143241000Y-55088000D03*
%TD*%
D49*
%TO.C,D2*%
X114332000Y-68580000D03*
X118332000Y-68580000D03*
%TD*%
D19*
%TO.C,C116*%
X200165000Y-132558000D03*
X198615000Y-132558000D03*
%TD*%
D38*
%TO.C,C76*%
X189787000Y-96490000D03*
X192737000Y-96490000D03*
%TD*%
D19*
%TO.C,C77*%
X186703000Y-96490000D03*
X185153000Y-96490000D03*
%TD*%
D14*
%TO.C,C43*%
X115796000Y-82520000D03*
X114836000Y-82520000D03*
%TD*%
D50*
%TO.C,IC3*%
X158772000Y-122095000D03*
X158772000Y-122745000D03*
X158772000Y-123395000D03*
X158772000Y-124045000D03*
X158772000Y-124695000D03*
X158772000Y-125345000D03*
X158772000Y-125995000D03*
X158772000Y-126645000D03*
X158772000Y-127295000D03*
X158772000Y-127945000D03*
X158772000Y-128595000D03*
X158772000Y-129245000D03*
X158772000Y-129895000D03*
X158772000Y-130545000D03*
X158772000Y-131195000D03*
X158772000Y-131845000D03*
X166348000Y-131845000D03*
X166348000Y-131195000D03*
X166348000Y-130545000D03*
X166348000Y-129895000D03*
X166348000Y-129245000D03*
X166348000Y-128595000D03*
X166348000Y-127945000D03*
X166348000Y-127295000D03*
X166348000Y-126645000D03*
X166348000Y-125995000D03*
X166348000Y-125345000D03*
X166348000Y-124695000D03*
X166348000Y-124045000D03*
X166348000Y-123395000D03*
X166348000Y-122745000D03*
X166348000Y-122095000D03*
D51*
X162560000Y-126970000D03*
%TD*%
D36*
%TO.C,R33*%
X106170000Y-80234000D03*
X107190000Y-80234000D03*
%TD*%
D19*
%TO.C,C64*%
X216167000Y-51024000D03*
X214617000Y-51024000D03*
%TD*%
D43*
%TO.C,R71*%
X149098000Y-146337000D03*
X149098000Y-144687000D03*
%TD*%
D24*
%TO.C,R75*%
X196405000Y-132558000D03*
X194755000Y-132558000D03*
%TD*%
D52*
%TO.C,U4*%
X94863500Y-79406000D03*
X94863500Y-77506000D03*
X92588500Y-78456000D03*
%TD*%
D18*
%TO.C,C2*%
X101791000Y-138974000D03*
X101791000Y-140874000D03*
%TD*%
D25*
%TO.C,C38*%
X103820000Y-77948000D03*
X101920000Y-77948000D03*
%TD*%
D53*
%TO.C,Q6*%
X104290000Y-133651000D03*
X103640000Y-133651000D03*
X102990000Y-133651000D03*
X102340000Y-133651000D03*
D54*
X102340000Y-136731000D03*
X102990000Y-136731000D03*
X103640000Y-136731000D03*
X104290000Y-136731000D03*
D55*
X103315000Y-135606000D03*
%TD*%
D43*
%TO.C,R65*%
X152654000Y-114587000D03*
X152654000Y-112937000D03*
%TD*%
D44*
%TO.C,C46*%
X151117000Y-60422000D03*
X152667000Y-60422000D03*
%TD*%
D37*
%TO.C,C14*%
X109220000Y-99439000D03*
X109220000Y-100399000D03*
%TD*%
D23*
%TO.C,C13*%
X116078000Y-100427000D03*
X116078000Y-99467000D03*
%TD*%
D43*
%TO.C,R44*%
X156718000Y-73947000D03*
X156718000Y-72297000D03*
%TD*%
D26*
%TO.C,L6*%
X188468000Y-113550000D03*
X188468000Y-102400000D03*
%TD*%
D56*
%TO.C,U3*%
X97069000Y-120180500D03*
X97719000Y-120180500D03*
X98369000Y-120180500D03*
X99019000Y-120180500D03*
X99019000Y-114455500D03*
X98369000Y-114455500D03*
X97719000Y-114455500D03*
X97069000Y-114455500D03*
%TD*%
D18*
%TO.C,C21*%
X94488000Y-116368000D03*
X94488000Y-118268000D03*
%TD*%
D44*
%TO.C,C69*%
X204711000Y-37816000D03*
X206261000Y-37816000D03*
%TD*%
%TO.C,C112*%
X197345000Y-151608000D03*
X198895000Y-151608000D03*
%TD*%
D18*
%TO.C,C88*%
X146035000Y-127224000D03*
X146035000Y-129124000D03*
%TD*%
D40*
%TO.C,R69*%
X176784000Y-132962500D03*
X176784000Y-131137500D03*
%TD*%
D41*
%TO.C,Q1*%
X136972000Y-80409500D03*
X138872000Y-80409500D03*
X137922000Y-78534500D03*
%TD*%
D13*
%TO.C,C66*%
X172974000Y-57615000D03*
X172974000Y-59165000D03*
%TD*%
D44*
%TO.C,C47*%
X151117000Y-62932000D03*
X152667000Y-62932000D03*
%TD*%
D13*
%TO.C,C80*%
X176530000Y-63203000D03*
X176530000Y-64753000D03*
%TD*%
D21*
%TO.C,R55*%
X178816000Y-67383500D03*
X178816000Y-69208500D03*
%TD*%
D57*
%TO.C,C35*%
X112268000Y-110648000D03*
X112268000Y-108748000D03*
%TD*%
D43*
%TO.C,R43*%
X145542000Y-85377000D03*
X145542000Y-83727000D03*
%TD*%
D25*
%TO.C,C50*%
X131760000Y-91410000D03*
X129860000Y-91410000D03*
%TD*%
D17*
%TO.C,R1*%
X94425000Y-127445000D03*
X94425000Y-129095000D03*
%TD*%
D19*
%TO.C,C65*%
X186449000Y-37816000D03*
X184899000Y-37816000D03*
%TD*%
D25*
%TO.C,C51*%
X131760000Y-102078000D03*
X129860000Y-102078000D03*
%TD*%
D36*
%TO.C,R13*%
X92962000Y-93188000D03*
X93982000Y-93188000D03*
%TD*%
D46*
%TO.C,U6*%
X131420000Y-99044000D03*
X131420000Y-96744000D03*
D47*
X125120000Y-96744000D03*
D46*
X131420000Y-94444000D03*
%TD*%
D40*
%TO.C,R38*%
X143749000Y-69716500D03*
X143749000Y-67891500D03*
%TD*%
D13*
%TO.C,C82*%
X174752000Y-71077000D03*
X174752000Y-72627000D03*
%TD*%
D18*
%TO.C,C44*%
X103886000Y-117318000D03*
X103886000Y-119218000D03*
%TD*%
D19*
%TO.C,C95*%
X170447000Y-132050000D03*
X168897000Y-132050000D03*
%TD*%
D18*
%TO.C,C3*%
X104585000Y-138974000D03*
X104585000Y-140874000D03*
%TD*%
D27*
%TO.C,L8*%
X188468000Y-142756000D03*
X188468000Y-153906000D03*
%TD*%
D58*
%TO.C,D1*%
X91948000Y-112720500D03*
X91948000Y-114295500D03*
%TD*%
D32*
%TO.C,C20*%
X105946000Y-93188000D03*
X106906000Y-93188000D03*
%TD*%
D24*
%TO.C,R49*%
X212915000Y-51024000D03*
X211265000Y-51024000D03*
%TD*%
D10*
%TO.C,C75*%
X172974000Y-72627000D03*
X172974000Y-71077000D03*
%TD*%
D59*
%TO.C,C68*%
X201881000Y-37816000D03*
X198931000Y-37816000D03*
%TD*%
D18*
%TO.C,C60*%
X148321000Y-65060000D03*
X148321000Y-66960000D03*
%TD*%
D25*
%TO.C,C9*%
X121600000Y-134874000D03*
X119700000Y-134874000D03*
%TD*%
D22*
%TO.C,C25*%
X102174000Y-88870000D03*
X104074000Y-88870000D03*
%TD*%
%TO.C,C30*%
X105984000Y-87092000D03*
X107884000Y-87092000D03*
%TD*%
D18*
%TO.C,C23*%
X89408000Y-77506000D03*
X89408000Y-79406000D03*
%TD*%
D19*
%TO.C,C59*%
X170447000Y-71090000D03*
X168897000Y-71090000D03*
%TD*%
D12*
%TO.C,R30*%
X111762000Y-75662000D03*
X110742000Y-75662000D03*
%TD*%
D57*
%TO.C,C1*%
X91631000Y-129220000D03*
X91631000Y-127320000D03*
%TD*%
D50*
%TO.C,IC2*%
X158772000Y-61135000D03*
X158772000Y-61785000D03*
X158772000Y-62435000D03*
X158772000Y-63085000D03*
X158772000Y-63735000D03*
X158772000Y-64385000D03*
X158772000Y-65035000D03*
X158772000Y-65685000D03*
X158772000Y-66335000D03*
X158772000Y-66985000D03*
X158772000Y-67635000D03*
X158772000Y-68285000D03*
X158772000Y-68935000D03*
X158772000Y-69585000D03*
X158772000Y-70235000D03*
X158772000Y-70885000D03*
X166348000Y-70885000D03*
X166348000Y-70235000D03*
X166348000Y-69585000D03*
X166348000Y-68935000D03*
X166348000Y-68285000D03*
X166348000Y-67635000D03*
X166348000Y-66985000D03*
X166348000Y-66335000D03*
X166348000Y-65685000D03*
X166348000Y-65035000D03*
X166348000Y-64385000D03*
X166348000Y-63735000D03*
X166348000Y-63085000D03*
X166348000Y-62435000D03*
X166348000Y-61785000D03*
X166348000Y-61135000D03*
D51*
X162560000Y-66010000D03*
%TD*%
D60*
%TO.C,U2*%
X97437500Y-98058000D03*
X97437500Y-98558000D03*
X97437500Y-99058000D03*
X97437500Y-99558000D03*
X97437500Y-100058000D03*
X97437500Y-100558000D03*
X97437500Y-101058000D03*
X97437500Y-101558000D03*
X97437500Y-102058000D03*
X97437500Y-102558000D03*
X97437500Y-103058000D03*
X97437500Y-103558000D03*
D61*
X98850000Y-104970500D03*
X99350000Y-104970500D03*
X99850000Y-104970500D03*
X100350000Y-104970500D03*
X100850000Y-104970500D03*
X101350000Y-104970500D03*
X101850000Y-104970500D03*
X102350000Y-104970500D03*
X102850000Y-104970500D03*
X103350000Y-104970500D03*
X103850000Y-104970500D03*
X104350000Y-104970500D03*
D60*
X105762500Y-103558000D03*
X105762500Y-103058000D03*
X105762500Y-102558000D03*
X105762500Y-102058000D03*
X105762500Y-101558000D03*
X105762500Y-101058000D03*
X105762500Y-100558000D03*
X105762500Y-100058000D03*
X105762500Y-99558000D03*
X105762500Y-99058000D03*
X105762500Y-98558000D03*
X105762500Y-98058000D03*
D61*
X104350000Y-96645500D03*
X103850000Y-96645500D03*
X103350000Y-96645500D03*
X102850000Y-96645500D03*
X102350000Y-96645500D03*
X101850000Y-96645500D03*
X101350000Y-96645500D03*
X100850000Y-96645500D03*
X100350000Y-96645500D03*
X99850000Y-96645500D03*
X99350000Y-96645500D03*
X98850000Y-96645500D03*
%TD*%
D36*
%TO.C,R31*%
X106170000Y-77948000D03*
X107190000Y-77948000D03*
%TD*%
D10*
%TO.C,C102*%
X174752000Y-120125000D03*
X174752000Y-118575000D03*
%TD*%
D43*
%TO.C,R47*%
X141732000Y-76233000D03*
X141732000Y-74583000D03*
%TD*%
D38*
%TO.C,C63*%
X189533000Y-37816000D03*
X192483000Y-37816000D03*
%TD*%
D19*
%TO.C,C114*%
X200165000Y-121890000D03*
X198615000Y-121890000D03*
%TD*%
D53*
%TO.C,Q5*%
X99210000Y-133651000D03*
X98560000Y-133651000D03*
X97910000Y-133651000D03*
X97260000Y-133651000D03*
D54*
X97260000Y-136731000D03*
X97910000Y-136731000D03*
X98560000Y-136731000D03*
X99210000Y-136731000D03*
D55*
X98235000Y-135606000D03*
%TD*%
D13*
%TO.C,C71*%
X174752000Y-66759000D03*
X174752000Y-68309000D03*
%TD*%
D12*
%TO.C,R14*%
X93982000Y-99030000D03*
X92962000Y-99030000D03*
%TD*%
D18*
%TO.C,C45*%
X119126000Y-115032000D03*
X119126000Y-116932000D03*
%TD*%
D43*
%TO.C,R62*%
X141732000Y-137193000D03*
X141732000Y-135543000D03*
%TD*%
D10*
%TO.C,C67*%
X174752000Y-64753000D03*
X174752000Y-63203000D03*
%TD*%
D11*
%TO.C,R27*%
X91948000Y-116046000D03*
X91948000Y-117066000D03*
%TD*%
D22*
%TO.C,C16*%
X96906000Y-90902000D03*
X98806000Y-90902000D03*
%TD*%
D18*
%TO.C,C87*%
X148321000Y-126020000D03*
X148321000Y-127920000D03*
%TD*%
D17*
%TO.C,R4*%
X92139000Y-137067000D03*
X92139000Y-138717000D03*
%TD*%
D59*
%TO.C,C72*%
X202135000Y-96490000D03*
X199185000Y-96490000D03*
%TD*%
D24*
%TO.C,R50*%
X212915000Y-42642000D03*
X211265000Y-42642000D03*
%TD*%
D22*
%TO.C,C5*%
X111064000Y-140178000D03*
X112964000Y-140178000D03*
%TD*%
D45*
%TO.C,R45*%
X137097000Y-82774000D03*
X138747000Y-82774000D03*
%TD*%
M02*
