%TF.GenerationSoftware,KiCad,Pcbnew,10.0.5*%
%TF.CreationDate,2026-08-12T13:52:11+01:00*%
%TF.ProjectId,protoAmp,70726f74-6f41-46d7-902e-6b696361645f,rev?*%
%TF.SameCoordinates,Original*%
%TF.FileFunction,Soldermask,Bot*%
%TF.FilePolarity,Negative*%
%FSLAX46Y46*%
G04 Gerber Fmt 4.6, Leading zero omitted, Abs format (unit mm)*
G04 Created by KiCad (PCBNEW 10.0.5) date 2026-08-12 13:52:11*
%MOMM*%
%LPD*%
G01*
G04 APERTURE LIST*
G04 Aperture macros list*
%AMRoundRect*
0 Rectangle with rounded corners*
0 $1 Rounding radius*
0 $2 $3 $4 $5 $6 $7 $8 $9 X,Y pos of 4 corners*
0 Add a 4 corners polygon primitive as box body*
4,1,4,$2,$3,$4,$5,$6,$7,$8,$9,$2,$3,0*
0 Add four circle primitives for the rounded corners*
1,1,$1+$1,$2,$3*
1,1,$1+$1,$4,$5*
1,1,$1+$1,$6,$7*
1,1,$1+$1,$8,$9*
0 Add four rect primitives between the rounded corners*
20,1,$1+$1,$2,$3,$4,$5,0*
20,1,$1+$1,$4,$5,$6,$7,0*
20,1,$1+$1,$6,$7,$8,$9,0*
20,1,$1+$1,$8,$9,$2,$3,0*%
G04 Aperture macros list end*
%ADD10R,1.000000X1.000000*%
%ADD11RoundRect,0.250000X0.750000X-0.750000X0.750000X0.750000X-0.750000X0.750000X-0.750000X-0.750000X0*%
%ADD12C,2.000000*%
%ADD13C,1.800000*%
%ADD14R,1.700000X1.700000*%
%ADD15C,1.700000*%
%ADD16C,1.440000*%
%ADD17C,5.500000*%
%ADD18RoundRect,0.250000X-0.750000X0.750000X-0.750000X-0.750000X0.750000X-0.750000X0.750000X0.750000X0*%
%ADD19C,0.650000*%
%ADD20O,0.650000X0.950000*%
%ADD21C,0.600000*%
%ADD22O,1.400000X0.800000*%
%ADD23R,1.500000X1.000000*%
G04 APERTURE END LIST*
%TO.C,JP1*%
G36*
X102882000Y-85784000D02*
G01*
X104382000Y-85784000D01*
X104382000Y-87384000D01*
X102882000Y-87384000D01*
X102882000Y-85784000D01*
G37*
%TO.C,JP2*%
G36*
X99834000Y-85784000D02*
G01*
X101334000Y-85784000D01*
X101334000Y-87384000D01*
X99834000Y-87384000D01*
X99834000Y-85784000D01*
G37*
%TD*%
D10*
%TO.C,TP48*%
X110998000Y-38608000D03*
%TD*%
D11*
%TO.C,J9*%
X200631500Y-128499000D03*
D12*
X200631500Y-125959000D03*
%TD*%
D13*
%TO.C,U7*%
X116078000Y-45974000D03*
X113538000Y-45974000D03*
X110998000Y-45974000D03*
X108458000Y-45974000D03*
X105918000Y-45974000D03*
X103378000Y-45974000D03*
X100838000Y-45974000D03*
X98298000Y-45974000D03*
X95758000Y-45974000D03*
X93218000Y-45974000D03*
X90678000Y-45974000D03*
X88138000Y-45974000D03*
X85598000Y-45974000D03*
X83058000Y-45974000D03*
X80518000Y-45974000D03*
X80518000Y-61214000D03*
X83058000Y-61214000D03*
X85598000Y-61214000D03*
X88138000Y-61214000D03*
X90678000Y-61214000D03*
X93218000Y-61214000D03*
X95758000Y-61214000D03*
X98298000Y-61214000D03*
X100838000Y-61214000D03*
X103378000Y-61214000D03*
X105918000Y-61214000D03*
X108458000Y-61214000D03*
X110998000Y-61214000D03*
X113538000Y-61214000D03*
X116078000Y-61214000D03*
%TD*%
D14*
%TO.C,J5*%
X140696000Y-58390000D03*
D15*
X143236000Y-58390000D03*
%TD*%
D10*
%TO.C,TP47*%
X88138000Y-38608000D03*
%TD*%
%TO.C,TP40*%
X85598000Y-68580000D03*
%TD*%
%TO.C,TP51*%
X110998000Y-68580000D03*
%TD*%
D16*
%TO.C,RV1*%
X132334000Y-68804000D03*
X134874000Y-66264000D03*
X132334000Y-63724000D03*
%TD*%
D17*
%TO.C,HS1*%
X162560000Y-46010000D03*
X162560000Y-86010000D03*
%TD*%
D18*
%TO.C,C54*%
X188468000Y-58216000D03*
D12*
X188468000Y-63216000D03*
%TD*%
D10*
%TO.C,TP37*%
X98298000Y-38608000D03*
%TD*%
D17*
%TO.C,HS2*%
X162560000Y-106970000D03*
X162560000Y-146970000D03*
%TD*%
D19*
%TO.C,J1*%
X86202000Y-129750000D03*
D20*
X86212000Y-136950000D03*
D21*
X85552000Y-136150000D03*
X84852000Y-135750000D03*
X84852000Y-134950000D03*
X85552000Y-134550000D03*
X84852000Y-134150000D03*
X85552000Y-133750000D03*
X85552000Y-132950000D03*
X84852000Y-132550000D03*
X85552000Y-132150000D03*
X84852000Y-131750000D03*
X84852000Y-130950000D03*
X85552000Y-130550000D03*
D22*
X80562000Y-128860000D03*
X84962000Y-129220000D03*
X84962000Y-137480000D03*
X80562000Y-137840000D03*
%TD*%
D10*
%TO.C,TP38*%
X95758000Y-38608000D03*
%TD*%
%TO.C,TP36*%
X100838000Y-38608000D03*
%TD*%
%TO.C,TP49*%
X90678000Y-68580000D03*
%TD*%
%TO.C,TP35*%
X105918000Y-68580000D03*
%TD*%
D16*
%TO.C,RV2*%
X132334000Y-129764000D03*
X134874000Y-127224000D03*
X132334000Y-124684000D03*
%TD*%
D10*
%TO.C,TP33*%
X100838000Y-68580000D03*
%TD*%
D14*
%TO.C,J11*%
X119138000Y-75408000D03*
D15*
X119138000Y-77948000D03*
X119138000Y-80488000D03*
X119138000Y-83028000D03*
X119138000Y-85568000D03*
X119138000Y-88108000D03*
X119138000Y-90648000D03*
X119138000Y-93188000D03*
X119138000Y-95728000D03*
X119138000Y-98268000D03*
X119138000Y-100808000D03*
X119138000Y-103348000D03*
X119138000Y-105888000D03*
X119138000Y-108428000D03*
%TD*%
D11*
%TO.C,J7*%
X216379500Y-48235000D03*
D12*
X216379500Y-45695000D03*
%TD*%
D10*
%TO.C,TP52*%
X108458000Y-68580000D03*
%TD*%
D14*
%TO.C,J6*%
X140696000Y-119350000D03*
D15*
X143236000Y-119350000D03*
%TD*%
D10*
%TO.C,TP41*%
X80518000Y-38608000D03*
%TD*%
%TO.C,TP44*%
X103378000Y-38608000D03*
%TD*%
%TO.C,TP39*%
X83058000Y-68580000D03*
%TD*%
D12*
%TO.C,SW3*%
X136180000Y-112186000D03*
X136180000Y-105686000D03*
X140680000Y-112186000D03*
X140680000Y-105686000D03*
%TD*%
D10*
%TO.C,TP42*%
X83058000Y-38608000D03*
%TD*%
D11*
%TO.C,C57*%
X188468000Y-76090000D03*
D12*
X188468000Y-71090000D03*
%TD*%
D18*
%TO.C,C89*%
X188468000Y-119176000D03*
D12*
X188468000Y-124176000D03*
%TD*%
D11*
%TO.C,J8*%
X216633500Y-88621000D03*
D12*
X216633500Y-86081000D03*
%TD*%
D10*
%TO.C,TP53*%
X85598000Y-38608000D03*
%TD*%
%TO.C,TP43*%
X105918000Y-38608000D03*
%TD*%
D12*
%TO.C,SW2*%
X140680000Y-85620000D03*
X140680000Y-92120000D03*
X136180000Y-85620000D03*
X136180000Y-92120000D03*
%TD*%
%TO.C,SW1*%
X136180000Y-51226000D03*
X136180000Y-44726000D03*
X140680000Y-51226000D03*
X140680000Y-44726000D03*
%TD*%
D10*
%TO.C,TP34*%
X103378000Y-68580000D03*
%TD*%
D12*
%TO.C,SW4*%
X140680000Y-146580000D03*
X140680000Y-153080000D03*
X136180000Y-146580000D03*
X136180000Y-153080000D03*
%TD*%
D10*
%TO.C,TP45*%
X93218000Y-38608000D03*
%TD*%
%TO.C,TP50*%
X108458000Y-38608000D03*
%TD*%
D11*
%TO.C,C92*%
X188468000Y-137050000D03*
D12*
X188468000Y-132050000D03*
%TD*%
D14*
%TO.C,J10*%
X88058000Y-84356000D03*
D15*
X88058000Y-86896000D03*
X88058000Y-89436000D03*
X88058000Y-91976000D03*
X88058000Y-94516000D03*
X88058000Y-97056000D03*
X88058000Y-99596000D03*
X88058000Y-102136000D03*
X88058000Y-104676000D03*
X88058000Y-107216000D03*
X88058000Y-109756000D03*
X88058000Y-112296000D03*
X88058000Y-114836000D03*
X88058000Y-117376000D03*
%TD*%
D10*
%TO.C,TP54*%
X98298000Y-68580000D03*
%TD*%
%TO.C,TP46*%
X90678000Y-38608000D03*
%TD*%
D23*
%TO.C,JP1*%
X103632000Y-87884000D03*
X103632000Y-86584000D03*
X103632000Y-85284000D03*
%TD*%
%TO.C,JP2*%
X100584000Y-87884000D03*
X100584000Y-86584000D03*
X100584000Y-85284000D03*
%TD*%
M02*
