M48
; DRILL file KiCad 10.0.5 date 2026-08-12T13:52:03
; FORMAT={-:-/ absolute / metric / decimal}
; #@! TF.CreationDate,2026-08-12T13:52:03+01:00
; #@! TF.GenerationSoftware,Kicad,Pcbnew,10.0.5
; #@! TF.FileFunction,Plated,1,4,PTH
FMAT,2
METRIC
; #@! TA.AperFunction,Plated,PTH,ViaDrill
T1C0.300
; #@! TA.AperFunction,Plated,PTH,ComponentDrill
T2C0.400
; #@! TA.AperFunction,Plated,PTH,ComponentDrill
T3C0.500
; #@! TA.AperFunction,Plated,PTH,ComponentDrill
T4C0.800
; #@! TA.AperFunction,Plated,PTH,ComponentDrill
T5C1.000
; #@! TA.AperFunction,Plated,PTH,ComponentDrill
T6C1.100
; #@! TA.AperFunction,Plated,PTH,ComponentDrill
T7C1.200
; #@! TA.AperFunction,Plated,PTH,ComponentDrill
T8C3.000
%
G90
G05
T1
X80.01Y-36.83
X80.01Y-69.85
X80.01Y-76.2
X80.01Y-82.55
X80.01Y-88.9
X80.01Y-96.52
X80.01Y-102.87
X81.28Y-106.68
X81.28Y-110.49
X81.28Y-116.84
X81.28Y-123.19
X81.696Y-99.619
X82.296Y-80.899
X82.296Y-87.249
X82.296Y-89.662
X82.423Y-76.581
X82.423Y-82.804
X82.423Y-84.963
X82.55Y-54.61
X82.55Y-72.39
X82.55Y-77.724
X82.55Y-79.248
X82.55Y-140.97
X82.55Y-147.32
X82.55Y-151.13
X82.55Y-154.94
X83.058Y-103.124
X83.088Y-105.634
X83.312Y-95.504
X83.77Y-91.186
X83.77Y-99.619
X83.82Y-50.8
X83.82Y-113.03
X83.82Y-119.38
X83.82Y-125.73
X83.947Y-103.632
X84.201Y-100.584
X84.201Y-107.061
X84.709Y-102.362
X84.836Y-98.933
X85.09Y-36.83
X85.09Y-58.42
X85.09Y-146.05
X85.217Y-101.346
X85.217Y-104.394
X85.217Y-105.664
X85.344Y-108.331
X85.725Y-94.234
X86.36Y-48.26
X86.36Y-142.24
X86.555Y-138.171
X86.741Y-120.269
X87.63Y-125.73
X87.63Y-153.67
X87.884Y-130.81
X87.884Y-131.826
X87.884Y-133.604
X87.884Y-135.128
X87.884Y-135.89
X88.646Y-76.17
X88.646Y-131.826
X88.9Y-53.34
X89.027Y-120.777
X89.408Y-76.17
X89.884Y-131.968
X89.916Y-82.139
X89.979Y-133.2
X90.17Y-36.83
X90.17Y-58.42
X90.17Y-76.17
X90.17Y-115.062
X90.17Y-148.59
X90.309Y-130.695
X90.424Y-121.539
X90.678Y-118.11
X90.805Y-126.111
X90.932Y-111.76
X91.186Y-77.948
X91.186Y-78.964
X91.44Y-152.4
X91.567Y-126.111
X91.948Y-87.854
X91.948Y-89.124
X91.948Y-104.11
X91.948Y-104.872
X91.948Y-108.174
X92.329Y-126.111
X92.436Y-139.881
X92.71Y-108.174
X93.726Y-119.604
X94.171Y-139.832
X94.488Y-119.604
X94.615Y-121.158
X94.742Y-97.252
X95.25Y-36.83
X95.25Y-49.53
X95.25Y-57.15
X95.25Y-119.604
X95.25Y-153.67
X95.377Y-100.058
X95.631Y-98.268
X95.758Y-94.204
X95.758Y-96.236
X95.885Y-105.918
X95.885Y-113.538
X96.139Y-107.061
X96.266Y-76.678
X96.774Y-121.636
X97.282Y-75.662
X97.536Y-121.636
X97.79Y-105.634
X97.79Y-116.137
X98.298Y-121.636
X98.298Y-138.43
X98.298Y-139.192
X98.298Y-139.954
X98.552Y-143.51
X98.806Y-95.22
X98.806Y-100.554
X98.866Y-108.488
X99.06Y-53.34
X99.06Y-121.636
X99.06Y-138.43
X99.06Y-139.192
X99.06Y-139.954
X99.06Y-149.86
X99.06Y-154.94
X99.314Y-143.51
X99.822Y-101.6
X99.822Y-102.362
X99.822Y-103.124
X99.822Y-138.43
X99.822Y-139.192
X99.822Y-139.954
X100.076Y-143.51
X100.33Y-36.83
X100.33Y-111.76
X100.457Y-115.951
X100.584Y-101.6
X100.584Y-102.362
X100.584Y-103.124
X100.584Y-110.49
X100.711Y-142.113
X100.711Y-142.875
X101.346Y-101.6
X101.346Y-102.362
X101.346Y-103.124
X101.473Y-110.109
X101.6Y-124.46
X101.981Y-109.093
X102.108Y-101.6
X102.108Y-102.362
X102.108Y-103.124
X102.362Y-114.935
X102.428Y-116.368
X102.489Y-113.665
X102.616Y-91.821
X102.616Y-92.964
X102.87Y-55.88
X103.124Y-111.73
X103.124Y-120.62
X103.124Y-141.986
X103.124Y-142.875
X103.124Y-143.764
X103.378Y-114.554
X103.886Y-120.62
X103.921Y-94.424
X104.14Y-49.53
X104.14Y-107.569
X104.267Y-95.22
X104.648Y-120.62
X105.156Y-83.312
X105.156Y-95.631
X105.16Y-105.63
X105.41Y-36.83
X105.918Y-89.759
X106.045Y-141.986
X106.045Y-142.875
X106.045Y-143.764
X106.522Y-96.713
X106.671Y-111.325
X106.68Y-58.42
X106.68Y-127.0
X106.68Y-144.018
X107.188Y-110.714
X107.442Y-144.018
X107.791Y-104.338
X107.95Y-97.76
X108.458Y-107.95
X108.712Y-97.76
X108.859Y-147.27
X109.22Y-57.15
X109.22Y-101.316
X109.22Y-102.078
X109.22Y-107.95
X109.22Y-130.81
X109.22Y-151.892
X109.474Y-97.76
X109.474Y-135.128
X109.474Y-135.89
X109.474Y-136.652
X109.474Y-137.414
X109.728Y-86.076
X109.728Y-86.838
X109.855Y-102.459
X109.982Y-151.638
X110.236Y-135.128
X110.236Y-135.89
X110.236Y-136.652
X110.236Y-137.414
X110.49Y-49.53
X110.49Y-53.34
X110.617Y-102.459
X110.744Y-83.79
X110.744Y-85.695
X110.998Y-135.128
X110.998Y-135.89
X110.998Y-136.652
X110.998Y-137.414
X111.506Y-111.984
X111.76Y-124.46
X111.76Y-135.128
X111.76Y-135.89
X111.76Y-136.652
X111.76Y-137.414
X112.268Y-111.984
X112.522Y-121.636
X112.522Y-135.128
X112.522Y-135.89
X112.522Y-136.652
X112.522Y-137.414
X112.776Y-75.662
X112.776Y-77.948
X112.776Y-80.234
X112.776Y-82.52
X112.903Y-97.379
X113.03Y-111.984
X113.03Y-128.27
X113.284Y-121.636
X113.284Y-141.986
X113.538Y-106.904
X113.665Y-97.379
X114.046Y-121.636
X114.046Y-141.986
X114.3Y-36.83
X114.3Y-39.37
X114.3Y-57.15
X114.3Y-97.76
X114.3Y-98.522
X114.3Y-132.08
X114.3Y-142.748
X114.554Y-41.91
X114.554Y-145.796
X114.554Y-146.558
X114.808Y-121.636
X115.316Y-41.91
X115.57Y-48.26
X115.57Y-118.842
X115.57Y-119.604
X115.57Y-120.366
X115.57Y-121.128
X116.078Y-41.91
X116.078Y-98.649
X116.84Y-41.91
X116.84Y-75.662
X116.84Y-77.948
X116.84Y-80.234
X116.84Y-82.52
X116.84Y-125.73
X116.84Y-129.54
X116.84Y-138.938
X116.84Y-154.94
X117.348Y-65.024
X117.348Y-133.604
X117.602Y-41.91
X117.602Y-138.938
X118.11Y-65.024
X118.11Y-133.35
X118.364Y-138.938
X118.872Y-64.516
X118.872Y-65.532
X118.872Y-133.35
X119.38Y-39.37
X119.634Y-133.35
X120.65Y-46.99
X120.65Y-58.42
X120.65Y-154.94
X121.666Y-77.216
X121.666Y-78.74
X121.666Y-79.756
X121.666Y-81.28
X121.666Y-82.296
X121.666Y-83.82
X121.666Y-139.7
X121.92Y-43.18
X121.92Y-52.07
X121.92Y-66.04
X122.936Y-75.692
X122.936Y-87.122
X123.19Y-60.96
X123.19Y-64.77
X123.19Y-69.85
X123.952Y-77.216
X123.952Y-78.74
X123.952Y-79.756
X123.952Y-81.28
X123.952Y-82.296
X123.952Y-83.82
X123.952Y-102.362
X124.206Y-72.39
X124.206Y-92.71
X124.46Y-57.15
X124.46Y-87.63
X124.714Y-77.216
X124.714Y-78.74
X124.714Y-79.756
X124.714Y-81.28
X124.714Y-82.296
X124.714Y-83.82
X124.714Y-103.378
X124.968Y-92.71
X124.968Y-102.362
X125.73Y-48.26
X125.73Y-90.17
X125.73Y-92.71
X125.73Y-103.378
X125.73Y-154.94
X125.984Y-100.838
X126.492Y-92.71
X127.0Y-38.1
X127.0Y-45.72
X127.0Y-78.74
X127.762Y-92.71
X128.27Y-59.69
X128.27Y-63.5
X128.27Y-73.66
X128.27Y-82.55
X128.27Y-88.9
X128.27Y-120.65
X128.524Y-89.916
X128.524Y-92.71
X128.524Y-129.921
X128.778Y-100.711
X128.778Y-103.632
X128.778Y-113.792
X129.032Y-123.444
X129.159Y-127.254
X129.286Y-89.916
X129.54Y-44.45
X129.54Y-52.07
X129.54Y-69.85
X129.54Y-86.36
X129.54Y-100.711
X129.54Y-103.632
X129.54Y-106.68
X129.54Y-113.792
X129.54Y-115.57
X129.54Y-118.11
X130.048Y-89.916
X130.302Y-82.042
X130.302Y-100.711
X130.302Y-103.632
X130.302Y-112.268
X130.302Y-113.03
X130.429Y-125.984
X130.81Y-40.64
X130.81Y-66.04
X130.81Y-74.93
X130.81Y-77.47
X130.81Y-131.191
X130.81Y-154.94
X132.08Y-107.95
X133.096Y-83.566
X133.096Y-96.774
X133.096Y-97.536
X133.35Y-87.122
X133.35Y-105.41
X133.35Y-111.76
X133.35Y-114.3
X133.35Y-140.97
X133.35Y-147.32
X133.35Y-153.67
X133.858Y-96.774
X133.858Y-97.536
X134.112Y-80.264
X134.366Y-89.154
X134.366Y-93.98
X134.366Y-95.25
X134.62Y-38.1
X134.62Y-54.61
X134.62Y-73.66
X134.874Y-94.615
X135.128Y-116.586
X135.382Y-93.98
X135.382Y-95.25
X135.509Y-130.937
X135.89Y-55.88
X135.89Y-59.69
X135.89Y-97.79
X135.89Y-100.33
X135.89Y-108.458
X135.89Y-119.38
X136.144Y-128.651
X137.922Y-91.44
X138.176Y-127.254
X138.303Y-128.651
X138.43Y-36.83
X138.43Y-54.61
X138.43Y-68.804
X138.43Y-97.79
X138.43Y-100.33
X138.43Y-116.84
X138.43Y-133.35
X138.684Y-87.884
X138.684Y-107.188
X138.938Y-110.236
X138.938Y-135.382
X139.446Y-127.0
X139.7Y-63.5
X139.7Y-89.154
X139.7Y-124.46
X139.954Y-78.74
X139.954Y-79.502
X139.954Y-80.264
X139.954Y-141.986
X140.208Y-54.356
X140.208Y-55.118
X140.208Y-55.88
X140.208Y-140.462
X140.208Y-141.224
X140.462Y-82.804
X140.716Y-70.358
X140.716Y-131.318
X140.716Y-135.382
X140.97Y-97.79
X141.478Y-70.358
X141.478Y-131.318
X142.24Y-60.96
X142.24Y-70.358
X142.24Y-123.19
X142.24Y-131.318
X142.748Y-49.784
X142.748Y-81.534
X142.748Y-109.728
X143.002Y-43.434
X143.002Y-93.98
X143.002Y-104.394
X143.256Y-46.482
X143.51Y-36.83
X143.51Y-97.79
X143.51Y-100.33
X143.51Y-139.7
X143.51Y-154.94
X143.764Y-78.232
X143.764Y-88.646
X143.764Y-89.662
X143.764Y-90.678
X143.764Y-91.694
X143.764Y-151.384
X143.764Y-152.146
X144.018Y-106.172
X144.272Y-152.654
X144.78Y-62.23
X144.78Y-80.264
X144.78Y-123.19
X145.542Y-70.866
X145.542Y-71.628
X145.542Y-108.458
X145.796Y-45.212
X145.796Y-131.826
X146.05Y-38.1
X146.05Y-97.79
X146.05Y-100.33
X146.05Y-142.24
X146.304Y-70.866
X146.304Y-71.628
X146.558Y-131.826
X146.812Y-47.752
X146.812Y-51.816
X146.812Y-64.994
X146.812Y-77.47
X146.812Y-152.654
X147.066Y-149.098
X147.32Y-59.69
X147.32Y-88.9
X147.32Y-91.694
X147.32Y-119.38
X147.32Y-147.828
X147.32Y-149.86
X147.32Y-154.94
X147.574Y-68.58
X147.574Y-129.286
X147.828Y-93.98
X148.082Y-80.518
X148.336Y-55.88
X148.336Y-56.642
X148.336Y-57.404
X148.336Y-68.58
X148.336Y-107.188
X148.336Y-110.49
X148.336Y-116.586
X148.336Y-117.348
X148.336Y-129.286
X148.59Y-97.79
X148.59Y-100.33
X148.844Y-48.514
X148.844Y-55.118
X148.844Y-116.078
X149.098Y-79.248
X149.098Y-82.296
X149.098Y-104.394
X149.098Y-129.286
X149.606Y-55.118
X149.606Y-76.2
X149.733Y-125.984
X149.86Y-40.64
X149.86Y-61.722
X149.86Y-62.484
X149.86Y-65.786
X149.86Y-66.548
X149.86Y-123.19
X149.86Y-123.952
X149.86Y-124.714
X149.86Y-127.762
X149.86Y-128.524
X150.114Y-51.054
X150.495Y-152.527
X150.622Y-61.722
X150.622Y-106.934
X150.622Y-127.254
X150.876Y-88.9
X150.876Y-91.694
X150.876Y-148.336
X150.876Y-149.098
X150.876Y-149.86
X151.13Y-49.784
X151.13Y-80.264
X151.13Y-97.79
X151.13Y-100.33
X151.13Y-110.236
X151.13Y-130.81
X151.13Y-134.62
X151.13Y-154.94
X151.384Y-61.722
X151.384Y-77.216
X151.384Y-93.98
X152.146Y-78.486
X152.4Y-36.83
X152.4Y-81.788
X152.4Y-135.89
X152.654Y-51.054
X152.654Y-143.256
X152.908Y-79.756
X152.908Y-107.95
X153.162Y-127.508
X153.67Y-97.79
X153.67Y-100.33
X153.67Y-103.886
X153.67Y-132.08
X153.67Y-134.62
X154.178Y-62.992
X154.178Y-66.294
X154.305Y-150.241
X154.432Y-53.086
X154.432Y-55.88
X154.432Y-57.15
X154.432Y-58.42
X154.432Y-59.69
X154.432Y-91.694
X154.432Y-110.49
X154.686Y-128.27
X154.94Y-66.294
X154.94Y-116.84
X154.94Y-119.38
X154.94Y-138.43
X155.067Y-122.809
X155.105Y-73.571
X156.21Y-51.054
X156.21Y-54.356
X156.21Y-62.23
X156.21Y-98.044
X156.21Y-100.076
X156.21Y-114.3
X156.21Y-153.67
X156.464Y-66.294
X156.464Y-127.508
X156.464Y-136.144
X156.718Y-123.19
X156.972Y-62.23
X156.972Y-103.124
X156.972Y-105.41
X156.972Y-107.442
X157.226Y-66.294
X157.226Y-136.144
X157.48Y-43.18
X157.48Y-48.26
X157.48Y-108.966
X157.48Y-119.38
X157.48Y-138.43
X157.48Y-149.86
X157.988Y-134.366
X157.988Y-135.128
X157.988Y-135.89
X158.242Y-56.134
X158.75Y-39.37
X158.75Y-74.93
X158.75Y-80.01
X158.75Y-83.82
X158.75Y-88.9
X158.75Y-116.84
X158.75Y-138.43
X159.004Y-137.16
X159.222Y-133.35
X159.258Y-57.658
X159.379Y-113.804
X160.02Y-36.83
X160.02Y-53.34
X160.02Y-154.94
X160.274Y-124.206
X160.274Y-125.476
X160.274Y-126.746
X160.274Y-128.27
X161.222Y-137.16
X161.29Y-68.58
X161.29Y-73.66
X161.29Y-78.74
X161.29Y-151.13
X161.822Y-133.096
X162.56Y-62.23
X162.56Y-74.93
X162.56Y-115.316
X162.56Y-116.332
X162.56Y-117.348
X162.56Y-118.364
X162.56Y-138.43
X162.56Y-153.67
X163.83Y-54.61
X163.83Y-69.85
X163.83Y-78.74
X163.83Y-100.33
X163.83Y-110.49
X164.592Y-113.792
X164.719Y-63.373
X164.719Y-64.135
X164.846Y-66.929
X164.846Y-67.691
X164.846Y-123.444
X164.846Y-124.714
X164.846Y-125.984
X164.846Y-127.254
X165.1Y-57.15
X165.1Y-102.87
X165.1Y-116.84
X165.1Y-135.382
X165.1Y-136.144
X165.1Y-149.86
X165.1Y-153.67
X166.116Y-138.43
X166.37Y-53.34
X166.37Y-82.55
X166.37Y-97.79
X166.37Y-109.22
X166.37Y-111.76
X166.37Y-119.38
X166.878Y-138.684
X167.64Y-38.1
X167.64Y-43.18
X167.64Y-48.26
X167.64Y-56.642
X167.64Y-57.404
X167.64Y-58.166
X167.64Y-58.928
X167.64Y-59.69
X167.64Y-71.374
X167.64Y-72.136
X167.64Y-72.898
X167.64Y-87.63
X167.64Y-105.41
X167.64Y-109.22
X167.64Y-115.57
X167.64Y-144.78
X167.64Y-151.13
X167.64Y-154.94
X167.767Y-65.659
X167.767Y-126.619
X167.767Y-132.334
X167.767Y-133.096
X167.767Y-133.858
X168.402Y-75.184
X168.402Y-76.2
X168.402Y-77.216
X168.402Y-78.232
X168.529Y-126.619
X168.656Y-65.659
X168.91Y-136.652
X168.91Y-137.668
X168.91Y-147.32
X169.291Y-126.619
X169.545Y-65.659
X170.053Y-126.619
X170.18Y-92.71
X170.434Y-65.659
X170.434Y-149.86
X170.434Y-150.622
X170.434Y-151.384
X170.815Y-126.619
X170.942Y-151.892
X171.196Y-51.024
X171.196Y-51.786
X171.196Y-52.548
X171.196Y-53.31
X171.196Y-76.932
X171.196Y-77.694
X171.196Y-78.456
X171.196Y-79.218
X171.196Y-90.932
X171.196Y-111.984
X171.196Y-112.746
X171.196Y-113.508
X171.196Y-114.27
X171.196Y-137.892
X171.196Y-138.654
X171.196Y-139.416
X171.196Y-140.178
X171.323Y-65.659
X171.45Y-101.6
X171.45Y-106.68
X171.45Y-153.67
X171.577Y-126.619
X171.704Y-151.892
X171.948Y-113.508
X171.958Y-51.024
X171.958Y-51.786
X171.958Y-52.548
X171.958Y-53.31
X171.958Y-76.932
X171.958Y-77.694
X171.958Y-78.456
X171.958Y-79.218
X171.958Y-90.932
X171.958Y-111.984
X171.958Y-112.746
X171.958Y-114.27
X171.958Y-137.892
X171.958Y-138.654
X171.958Y-139.416
X171.958Y-140.178
X172.212Y-65.659
X172.466Y-151.892
X172.72Y-46.99
X172.72Y-51.024
X172.72Y-51.786
X172.72Y-52.548
X172.72Y-53.31
X172.72Y-76.932
X172.72Y-77.694
X172.72Y-78.456
X172.72Y-79.218
X172.72Y-90.932
X172.72Y-97.79
X172.72Y-109.22
X172.72Y-111.984
X172.72Y-112.746
X172.72Y-113.508
X172.72Y-114.27
X172.72Y-137.892
X172.72Y-138.654
X172.72Y-139.416
X172.72Y-140.178
X173.101Y-65.659
X173.228Y-151.892
X173.482Y-51.786
X173.482Y-52.548
X173.482Y-53.31
X173.482Y-76.932
X173.482Y-77.694
X173.482Y-78.456
X173.482Y-90.932
X173.482Y-112.746
X173.482Y-113.508
X173.482Y-114.27
X173.482Y-139.416
X173.99Y-41.91
X173.99Y-151.892
X174.244Y-90.932
X174.498Y-151.384
X174.752Y-90.424
X175.006Y-61.214
X175.006Y-69.596
X175.26Y-38.1
X175.26Y-49.53
X175.26Y-82.55
X175.26Y-91.44
X175.26Y-104.14
X175.26Y-154.94
X176.022Y-61.214
X176.022Y-73.914
X176.53Y-55.88
X176.53Y-81.28
X176.53Y-83.82
X176.53Y-88.9
X176.53Y-100.33
X176.53Y-106.68
X176.53Y-116.84
X176.53Y-125.73
X176.53Y-143.51
X176.53Y-144.78
X176.53Y-152.4
X177.038Y-61.214
X177.038Y-73.914
X177.8Y-39.37
X177.8Y-43.18
X177.8Y-48.26
X177.8Y-55.88
X177.8Y-86.36
X177.8Y-109.22
X177.8Y-115.57
X177.8Y-134.366
X178.054Y-65.786
X178.054Y-73.914
X178.308Y-61.214
X178.308Y-130.81
X178.308Y-133.096
X178.308Y-133.858
X178.816Y-60.706
X179.07Y-65.786
X179.07Y-118.11
X179.07Y-125.73
X179.07Y-143.51
X179.07Y-146.05
X179.07Y-152.4
X179.07Y-154.94
X179.324Y-60.198
X179.578Y-61.214
X180.086Y-60.706
X180.086Y-69.85
X180.34Y-142.24
X180.34Y-149.86
X180.594Y-60.198
X180.848Y-69.85
X181.356Y-70.358
X181.61Y-71.12
X181.61Y-118.11
X182.88Y-41.91
X182.88Y-48.26
X182.88Y-127.0
X182.88Y-153.67
X183.388Y-36.576
X183.388Y-39.116
X184.15Y-36.576
X184.15Y-39.116
X184.15Y-46.99
X184.15Y-64.77
X184.15Y-66.04
X184.15Y-67.31
X184.15Y-87.63
X184.15Y-91.44
X184.15Y-127.0
X184.15Y-128.27
X184.15Y-147.32
X184.404Y-95.25
X184.404Y-97.79
X184.912Y-36.576
X184.912Y-39.116
X185.166Y-95.25
X185.166Y-97.79
X185.42Y-66.04
X185.42Y-67.31
X185.42Y-68.58
X185.42Y-105.41
X185.42Y-127.0
X185.42Y-128.27
X185.42Y-129.54
X185.42Y-146.05
X185.42Y-149.86
X186.69Y-66.04
X186.69Y-67.31
X186.69Y-99.06
X186.69Y-107.95
X186.69Y-127.0
X186.69Y-128.27
X187.96Y-67.31
X187.96Y-128.27
X190.5Y-146.05
X190.5Y-149.86
X191.77Y-36.068
X191.77Y-39.37
X192.024Y-94.996
X192.024Y-98.044
X192.532Y-36.068
X192.532Y-39.37
X192.786Y-94.996
X192.786Y-98.044
X193.04Y-43.18
X193.04Y-91.44
X193.04Y-106.68
X193.04Y-111.76
X193.04Y-143.51
X193.04Y-147.32
X193.04Y-149.86
X193.294Y-36.068
X193.294Y-39.37
X193.548Y-94.996
X193.548Y-98.044
X193.802Y-38.1
X193.802Y-38.862
X194.056Y-95.504
X194.056Y-96.266
X195.326Y-120.65
X195.326Y-131.318
X195.58Y-41.91
X195.58Y-92.71
X195.58Y-99.06
X195.58Y-125.73
X195.58Y-128.27
X195.58Y-138.43
X196.088Y-120.65
X196.088Y-131.318
X196.85Y-64.77
X196.85Y-120.65
X196.85Y-131.318
X196.85Y-140.97
X197.612Y-36.576
X197.612Y-37.338
X197.866Y-96.774
X197.866Y-97.536
X198.12Y-36.068
X198.12Y-39.37
X198.12Y-44.45
X198.12Y-90.17
X198.374Y-94.996
X198.374Y-98.044
X198.882Y-36.068
X198.882Y-39.37
X198.882Y-100.584
X198.882Y-105.918
X198.882Y-150.368
X199.136Y-94.996
X199.136Y-98.044
X199.39Y-41.91
X199.39Y-69.85
X199.644Y-36.068
X199.644Y-39.37
X199.644Y-100.584
X199.644Y-105.918
X199.644Y-150.368
X199.898Y-94.996
X199.898Y-98.044
X199.898Y-152.654
X199.898Y-155.702
X200.406Y-100.584
X200.406Y-105.41
X200.406Y-150.622
X200.66Y-58.42
X200.66Y-62.23
X200.66Y-74.93
X200.66Y-106.68
X200.66Y-148.59
X200.66Y-152.654
X200.66Y-155.702
X200.914Y-103.378
X201.168Y-101.092
X201.168Y-153.162
X201.168Y-155.194
X201.676Y-103.378
X202.438Y-103.378
X203.2Y-99.06
X203.2Y-107.95
X203.2Y-111.76
X203.2Y-115.57
X203.2Y-120.65
X203.2Y-133.35
X203.2Y-138.43
X203.2Y-143.51
X203.2Y-146.05
X203.2Y-149.86
X204.47Y-55.88
X204.47Y-77.47
X205.74Y-64.77
X206.248Y-36.576
X206.248Y-39.116
X206.502Y-95.25
X206.502Y-97.79
X207.01Y-36.576
X207.01Y-39.116
X207.01Y-41.91
X207.01Y-59.69
X207.01Y-91.44
X207.264Y-95.25
X207.264Y-97.79
X207.772Y-36.576
X207.772Y-39.116
X208.026Y-95.25
X208.026Y-97.79
X208.28Y-72.39
X209.55Y-55.88
X210.058Y-42.164
X210.058Y-42.926
X210.058Y-50.546
X210.058Y-51.308
X210.058Y-82.804
X210.058Y-83.566
X210.058Y-91.186
X210.058Y-92.202
X210.82Y-77.47
X212.09Y-38.1
X212.09Y-68.58
X212.09Y-95.25
X213.36Y-57.15
X213.36Y-62.23
X214.63Y-97.79
X215.9Y-77.47
X218.44Y-74.93
X219.71Y-67.31
X219.71Y-95.25
T2
X84.852Y-130.95
X84.852Y-131.75
X84.852Y-132.55
X84.852Y-134.15
X84.852Y-134.95
X84.852Y-135.75
X85.552Y-130.55
X85.552Y-132.15
X85.552Y-132.95
X85.552Y-133.75
X85.552Y-134.55
X85.552Y-136.15
T3
X80.518Y-38.608
X83.058Y-38.608
X83.058Y-68.58
X85.598Y-38.608
X85.598Y-68.58
X88.138Y-38.608
X90.678Y-38.608
X90.678Y-68.58
X93.218Y-38.608
X95.758Y-38.608
X98.298Y-38.608
X98.298Y-68.58
X100.838Y-38.608
X100.838Y-68.58
X103.378Y-38.608
X103.378Y-68.58
X105.918Y-38.608
X105.918Y-68.58
X108.458Y-38.608
X108.458Y-68.58
X110.998Y-38.608
X110.998Y-68.58
T4
X132.334Y-63.724
X132.334Y-68.804
X132.334Y-124.684
X132.334Y-129.764
X134.874Y-66.264
X134.874Y-127.224
T5
X80.518Y-45.974
X80.518Y-61.214
X83.058Y-45.974
X83.058Y-61.214
X85.598Y-45.974
X85.598Y-61.214
X88.058Y-84.356
X88.058Y-86.896
X88.058Y-89.436
X88.058Y-91.976
X88.058Y-94.516
X88.058Y-97.056
X88.058Y-99.596
X88.058Y-102.136
X88.058Y-104.676
X88.058Y-107.216
X88.058Y-109.756
X88.058Y-112.296
X88.058Y-114.836
X88.058Y-117.376
X88.138Y-45.974
X88.138Y-61.214
X90.678Y-45.974
X90.678Y-61.214
X93.218Y-45.974
X93.218Y-61.214
X95.758Y-45.974
X95.758Y-61.214
X98.298Y-45.974
X98.298Y-61.214
X100.838Y-45.974
X100.838Y-61.214
X103.378Y-45.974
X103.378Y-61.214
X105.918Y-45.974
X105.918Y-61.214
X108.458Y-45.974
X108.458Y-61.214
X110.998Y-45.974
X110.998Y-61.214
X113.538Y-45.974
X113.538Y-61.214
X116.078Y-45.974
X116.078Y-61.214
X119.138Y-75.408
X119.138Y-77.948
X119.138Y-80.488
X119.138Y-83.028
X119.138Y-85.568
X119.138Y-88.108
X119.138Y-90.648
X119.138Y-93.188
X119.138Y-95.728
X119.138Y-98.268
X119.138Y-100.808
X119.138Y-103.348
X119.138Y-105.888
X119.138Y-108.428
X140.696Y-58.39
X140.696Y-119.35
X143.236Y-58.39
X143.236Y-119.35
X188.468Y-58.216
X188.468Y-63.216
X188.468Y-71.09
X188.468Y-76.09
X188.468Y-119.176
X188.468Y-124.176
X188.468Y-132.05
X188.468Y-137.05
T6
X136.18Y-44.726
X136.18Y-51.226
X136.18Y-85.62
X136.18Y-92.12
X136.18Y-105.686
X136.18Y-112.186
X136.18Y-146.58
X136.18Y-153.08
X140.68Y-44.726
X140.68Y-51.226
X140.68Y-85.62
X140.68Y-92.12
X140.68Y-105.686
X140.68Y-112.186
X140.68Y-146.58
X140.68Y-153.08
T7
X200.631Y-125.959
X200.631Y-128.499
X216.379Y-45.695
X216.379Y-48.235
X216.633Y-86.081
X216.633Y-88.621
T8
X162.56Y-46.01
X162.56Y-86.01
X162.56Y-106.97
X162.56Y-146.97
T3
G00X80.862Y-128.86
M15
G01X80.262Y-128.86
M16
G05
G00X80.862Y-137.84
M15
G01X80.262Y-137.84
M16
G05
G00X85.262Y-129.22
M15
G01X84.662Y-129.22
M16
G05
G00X85.262Y-137.48
M15
G01X84.662Y-137.48
M16
G05
M30
